<svg width="25" height="33" viewBox="0 0 25 33" fill="none" xmlns="http://www.w3.org/2000/svg">
<path d="M24.1502 21.7844L24.1105 22.3006V22.3404C24.0708 22.8566 24.0311 23.3728 23.9914 23.8492C23.9914 23.8492 23.9914 23.889 23.9914 23.9287C23.9517 24.6434 23.8723 25.3581 23.7929 25.9935C23.7929 26.0332 23.7929 26.0729 23.7929 26.1126C23.4752 28.8921 23.0781 30.9172 22.7605 31.3143C21.609 32.7437 17.3602 33.1805 15.6925 31.5922C15.4146 31.354 15.216 30.8775 15.1366 30.2422C15.0969 30.123 15.0969 30.0039 15.0969 29.8848C14.7793 27.7406 15.1366 24.0478 15.4146 20.5932C15.5337 18.9652 15.6925 17.3372 15.6925 15.9871C15.6925 15.7489 15.6925 15.5106 15.6925 15.3121C15.6925 14.2003 15.6131 13.2473 15.4543 12.4532C15.3749 12.0958 15.2954 11.7781 15.216 11.4605C15.1366 11.2222 15.0572 10.984 14.9778 10.7854C14.6601 10.0707 14.2631 9.59421 13.8263 9.27655C12.7145 8.4824 11.3247 8.83977 10.4908 9.39567C10.4511 9.43538 10.4114 9.43538 10.3717 9.47509C10.332 9.5148 10.2923 9.5545 10.2129 9.59421C10.1335 9.67363 10.054 9.75304 9.97463 9.87216L9.93493 9.91187C9.45843 10.706 9.33931 12.2943 9.2599 13.7635C9.2599 13.8429 9.2599 13.9223 9.2599 14.0018C9.2599 14.0812 9.2599 14.1606 9.2599 14.2797C9.2599 14.3988 9.2599 14.518 9.2599 14.6768C9.2599 15.1533 9.2599 15.6298 9.2599 15.9474C9.2599 17.5754 6.99656 18.6078 4.69352 18.2902H4.65381C4.49498 18.2505 4.33615 18.2505 4.13761 18.2108C3.74054 18.1313 3.34346 17.9725 2.98609 17.8137C2.74785 17.6946 2.5096 17.5754 2.31107 17.4166C1.19925 16.6622 0.603638 14.6768 0.56393 12.4135C0.484515 10.1898 0.921297 7.64854 1.83457 5.62345C1.83457 5.62345 1.83457 5.58374 1.87428 5.58374C2.31107 4.59105 2.86697 3.75719 3.542 3.16158C5.01118 1.81152 7.31422 0.81883 9.85551 0.302631C12.1983 -0.134153 14.7793 -0.134154 17.0426 0.540876C19.0677 1.13649 20.8545 2.2086 22.0855 3.91602C22.284 4.23368 22.4825 4.55134 22.6811 4.94842C22.8796 5.3455 23.0384 5.78228 23.1973 6.21906C23.8326 8.12503 24.1502 10.6663 24.3091 13.3664C24.3488 16.0665 24.3091 19.0446 24.1502 21.7844Z" fill="url(#paint0_linear_0_13320)"/>
<path d="M24.1107 22.3403C21.8077 26.7876 16.0103 26.2714 15.0176 29.8848C14.2632 26.8273 15.3353 20.5932 15.3353 20.5932C15.6133 20.4741 15.8912 20.3549 16.1692 20.2358C21.8077 17.5754 23.7136 14.2797 24.1504 13.287C24.2298 13.0884 24.2695 13.009 24.2695 13.009C25.1828 18.4887 24.1107 22.3403 24.1107 22.3403Z" fill="url(#paint1_linear_0_13320)"/>
<path d="M23.0384 6.25867C23.0384 6.29838 22.9987 6.37779 22.9987 6.45721C22.8796 6.85428 22.681 7.25136 22.4031 7.64843C20.6162 10.3088 16.0896 13.2472 15.6528 16.0664C14.9778 15.0738 14.8983 10.8647 14.8983 10.8647C14.9381 10.7853 15.1763 10.2294 15.7322 8.60142V8.56171C15.891 8.16463 16.0499 7.68814 16.2484 7.17194C17.2411 4.313 16.8837 0.540771 16.8837 0.540771C20.2192 1.01726 21.8075 3.16147 22.4825 4.67036C22.8399 5.46452 22.9987 6.09984 22.9987 6.17925C23.0781 6.17925 23.0781 6.17925 23.0384 6.25867Z" fill="url(#paint2_linear_0_13320)"/>
<path d="M13.7469 9.27672C13.7469 9.27672 12.1983 10.2297 10.7688 9.59438C10.6497 9.55467 10.5306 9.47526 10.4114 9.35614C9.18051 8.44286 8.10841 5.94128 5.84507 4.94859C3.46262 3.91619 1.91402 5.38537 1.75519 5.5045C1.95373 1.8514 6.08332 -0.610476 9.73642 0.183676C11.1262 0.501337 11.7218 1.29549 12.0395 2.4073C12.0395 2.4073 12.0395 2.44701 12.0792 2.52643C12.1189 2.64555 12.1586 2.84409 12.238 3.12204V3.16175C12.5557 4.94859 12.5954 7.21192 13.7469 9.27672Z" fill="url(#paint3_linear_0_13320)"/>
<path d="M9.93494 9.83252C9.33932 10.9046 2.03313 10.2296 0.484529 12.3738C-1.06407 14.518 1.3581 17.8932 4.09792 18.1711C4.09792 18.1711 5.60681 14.6768 9.2202 14.0018C9.25991 14.0018 10.2526 11.9767 9.93494 9.83252Z" fill="url(#paint4_linear_0_13320)"/>
<path d="M7.15545 2.04986C7.07604 3.3205 8.74376 3.24108 9.25996 1.7322C9.73645 0.263014 7.19516 1.09687 7.15545 2.04986Z" fill="white"/>
<path d="M18.8294 3.59841C18.0749 3.87636 18.8294 4.55139 19.3456 4.35285C19.9015 4.15432 19.3456 3.39987 18.8294 3.59841Z" fill="white"/>
<path d="M1.75518 13.3266C1.3184 13.9222 2.35079 14.5575 3.06553 13.6442C3.78027 12.6913 2.19196 12.7707 1.75518 13.3266Z" fill="white"/>
<path opacity="0.47" d="M16.0896 20.5535C16.0896 20.5535 17.5588 20.2755 20.2986 18.7666C23.0385 17.2577 24.1503 14.1208 24.1503 14.1208C24.1503 14.1208 21.3707 18.4093 16.0896 20.5535Z" fill="#FFDAE8"/>
<path opacity="0.47" d="M2.23163 3.71754C2.23163 3.71754 3.97876 0.8983 7.15537 0.580639C10.2923 0.302686 11.4438 1.17625 11.4438 1.17625C11.4438 1.17625 10.3717 -0.173805 7.47303 0.143856C4.41555 0.461517 2.74783 2.56602 2.23163 3.71754Z" fill="#FFDAE8"/>
<path opacity="0.47" d="M1.23895 11.8971C1.23895 11.8971 2.90667 10.9442 5.84504 10.7853C8.7834 10.5868 9.45843 10.3088 9.45843 10.3088C9.45843 10.3088 8.86281 10.8647 6.52007 10.9442C4.13761 10.9839 1.23895 11.8971 1.23895 11.8971Z" fill="#FFDAE8"/>
<path d="M3.85974 5.74268C2.5891 5.98093 2.03319 7.60894 2.27144 9.03841C2.46997 10.4679 4.85243 8.24426 5.28921 6.93391C5.68629 5.66326 3.85974 5.74268 3.85974 5.74268Z" fill="white"/>
<path d="M23.1973 11.8972C22.7605 11.5398 22.3238 14.1605 22.8797 14.3988C23.4356 14.637 24.0709 12.6516 23.1973 11.8972Z" fill="white"/>
<path d="M17.3205 13.6442C17.0426 14.1207 19.6236 12.0559 20.8545 10.6661C22.0854 9.31607 22.4428 7.60864 22.4428 7.60864C22.4428 7.60864 17.7573 12.8898 17.3205 13.6442Z" fill="white"/>
<path d="M17.956 27.4231C17.956 27.4231 19.9414 26.5098 20.8149 26.073C21.7282 25.6362 22.7606 24.4053 22.7606 24.4053C22.7606 24.4053 21.8076 25.1994 20.3384 25.9142C18.909 26.6686 17.956 27.4231 17.956 27.4231Z" fill="white"/>
<path d="M10.61 0.342285C10.61 0.342285 11.5232 0.779069 11.9203 1.93059C12.3174 3.08211 12.3968 4.27334 12.3968 4.27334C12.3968 4.27334 12.4762 2.4865 12.1188 1.49381C11.8012 0.461409 10.61 0.342285 10.61 0.342285Z" fill="white"/>
<path d="M5.01108 17.1387C5.01108 17.1387 5.6464 16.1063 6.95675 15.4709C8.2671 14.8356 8.94213 14.3591 8.94213 14.3591C8.94213 14.3591 6.24201 14.7562 5.01108 17.1387Z" fill="white"/>
<path d="M2.66827 5.14711C2.66827 5.14711 4.29628 4.94857 5.36839 5.42506C6.40079 5.90155 7.67143 6.81483 7.67143 6.81483C7.67143 6.81483 6.12283 5.14711 5.09044 4.86915C4.01833 4.55149 2.66827 5.14711 2.66827 5.14711Z" fill="white"/>
<defs>
<linearGradient id="paint0_linear_0_13320" x1="12.3908" y1="32.5823" x2="12.3908" y2="-0.0638319" gradientUnits="userSpaceOnUse">
<stop stop-color="#FFDBCF"/>
<stop offset="1" stop-color="#FFD1C9"/>
</linearGradient>
<linearGradient id="paint1_linear_0_13320" x1="19.6933" y1="13.009" x2="19.6933" y2="29.8848" gradientUnits="userSpaceOnUse">
<stop stop-color="#A93AFF"/>
<stop offset="1" stop-color="#652399"/>
</linearGradient>
<linearGradient id="paint2_linear_0_13320" x1="18.9814" y1="0.540771" x2="18.9814" y2="16.0664" gradientUnits="userSpaceOnUse">
<stop stop-color="#A93AFF"/>
<stop offset="1" stop-color="#652399"/>
</linearGradient>
<linearGradient id="paint3_linear_0_13320" x1="7.75104" y1="0.0344238" x2="7.75104" y2="9.81277" gradientUnits="userSpaceOnUse">
<stop stop-color="#A93AFF"/>
<stop offset="1" stop-color="#652399"/>
</linearGradient>
<linearGradient id="paint4_linear_0_13320" x1="4.99877" y1="9.83252" x2="4.99877" y2="18.1711" gradientUnits="userSpaceOnUse">
<stop stop-color="#A93AFF"/>
<stop offset="1" stop-color="#652399"/>
</linearGradient>
</defs>
</svg>
