<svg width="42" height="36" viewBox="0 0 42 36" fill="none" xmlns="http://www.w3.org/2000/svg">
<path d="M14.1952 3.4585C11.7644 -0.275755 5.28228 -1.29739 2.35829 1.94366C-0.671387 5.2904 -0.812302 11.2441 2.11169 14.7317C5.14137 18.3251 12.1519 17.5852 14.7236 13.4987C16.7669 10.2577 16.2032 6.48818 14.1952 3.4585Z" fill="#B3D63F"/>
<path d="M39.4895 3.4585C37.0587 -0.275755 30.5766 -1.29739 27.6526 1.94366C24.6229 5.2904 24.482 11.2441 27.406 14.7317C30.4357 18.3251 37.4462 17.5852 40.0179 13.4987C42.0612 10.2577 41.4623 6.48818 39.4895 3.4585Z" fill="#B3D63F"/>
<path d="M11.8701 5.36073C10.3552 3.03563 6.30393 2.40151 4.47203 4.40955C2.6049 6.52328 2.49922 10.2223 4.33111 12.4065C6.19824 14.6611 10.6018 14.1679 12.1871 11.6315C13.4554 9.58818 13.1031 7.26308 11.8701 5.36073Z" fill="#A0C33C"/>
<path d="M36.9177 5.36073C35.4029 3.03563 31.3516 2.40151 29.5197 4.40955C27.6173 6.48805 27.5469 10.2223 29.3788 12.3713C31.2459 14.6259 35.6495 14.1327 37.2348 11.5962C38.503 9.58819 38.1507 7.26308 36.9177 5.36073Z" fill="#A0C33C"/>
<path d="M37.6928 19.3466C35.6143 9.48256 25.6093 2.93 14.5475 6.38242C7.21986 8.67229 2.42874 16.4579 3.09809 23.5389C3.62652 29.0698 8.31195 33.6495 13.7372 35.0587C22.9671 37.4542 38.0098 35.0587 38.1155 23.3979C38.1155 21.9888 37.9746 20.6501 37.6928 19.3466Z" fill="url(#paint0_linear_0_12059)"/>
<path d="M13.8781 21.6366C14.0895 21.6366 14.3008 21.6013 14.5122 21.4956C14.7236 21.4252 14.8997 21.3195 15.0407 21.1434C15.2168 21.0024 15.3225 20.8263 15.3929 20.6149C15.4986 20.4035 15.5339 20.2274 15.5339 19.9808C15.4986 19.8399 15.4986 19.699 15.4634 19.5581C15.3929 19.2762 15.252 19.0296 15.0407 18.8535C14.935 18.783 14.8293 18.6773 14.7236 18.6069C14.477 18.466 14.1952 18.3955 13.9133 18.3955C13.702 18.3955 13.4906 18.4307 13.2792 18.5364C13.0678 18.6069 12.8917 18.7126 12.7508 18.8887C12.5746 19.0296 12.4689 19.2058 12.3985 19.4171C12.2928 19.6285 12.2576 19.8047 12.2576 20.0513C12.2928 20.1922 12.2928 20.3331 12.328 20.474C12.3985 20.7558 12.5394 21.0024 12.7508 21.1786C12.8565 21.249 12.9622 21.3547 13.0678 21.4252C13.3144 21.5661 13.5963 21.6366 13.8781 21.6366Z" fill="#699911"/>
<path d="M28.0753 21.6366C28.2867 21.6366 28.4981 21.6013 28.7094 21.4956C28.9208 21.4252 29.097 21.3195 29.2379 21.1434C29.414 21.0024 29.5197 20.8263 29.5902 20.6149C29.6959 20.4035 29.7311 20.2274 29.7311 19.9808C29.6959 19.8399 29.6959 19.699 29.6606 19.5581C29.5902 19.2762 29.4493 19.0296 29.2379 18.8535C29.1322 18.783 29.0265 18.6773 28.9208 18.6069C28.6742 18.466 28.3924 18.3955 28.1106 18.3955C27.8992 18.3955 27.6878 18.4307 27.4764 18.5364C27.2651 18.6069 27.0889 18.7126 26.948 18.8887C26.7719 19.0296 26.6662 19.2058 26.5957 19.4171C26.49 19.6285 26.4548 19.8047 26.4548 20.0513C26.49 20.1922 26.49 20.3331 26.5253 20.474C26.5957 20.7558 26.7366 21.0024 26.948 21.1786C27.0537 21.249 27.1594 21.3547 27.2651 21.4252C27.4764 21.5661 27.7583 21.6366 28.0753 21.6366Z" fill="#699911"/>
<path d="M27.6526 26.9209C27.6526 26.3572 27.5469 25.8288 27.3707 25.3004C26.9832 23.2219 24.9752 21.4252 22.9319 21.0377C18.8101 20.2274 13.9133 24.0674 14.9702 28.5062C16.485 35.0235 27.5821 32.945 27.6526 26.9209Z" fill="#CAF155"/>
<path d="M23.7422 24.1378C23.7422 24.9129 22.791 25.5118 21.6284 25.5118C20.4659 25.5118 19.5147 24.8776 19.5147 24.1378C19.5147 23.3628 20.4659 22.7639 21.6284 22.7639C22.791 22.7639 23.7422 23.3628 23.7422 24.1378Z" fill="#699911"/>
<path d="M21.1705 24.2787C21.1 24.6662 21.1705 25.089 21.2057 25.4765C21.2761 25.8992 21.2761 26.2868 21.2057 26.7095C21.1352 27.097 21.0648 27.4845 20.9239 27.8368C20.8182 28.1539 20.642 28.5414 20.3602 28.7528C19.9374 29.1051 19.2681 29.1051 18.7749 28.9289C18.3169 28.788 17.9999 28.4357 17.8942 28.013C17.8237 27.8016 17.7885 27.5198 17.8589 27.3084C17.9294 27.0618 18.2112 27.0618 18.3169 26.8504C18.3522 26.78 18.3522 26.639 18.2817 26.6038C17.9999 26.3572 17.6123 26.6038 17.4362 26.8856C17.2601 27.1322 17.2248 27.4141 17.2248 27.6959C17.2601 28.33 17.5419 28.8937 18.0351 29.2812C18.5988 29.7039 19.4795 29.8096 20.1488 29.563C20.9591 29.2812 21.3114 28.4709 21.5227 27.6607C21.6637 27.1675 21.7341 26.6038 21.6989 26.1106C21.6637 25.5469 21.4171 24.9833 21.4523 24.4196C21.4523 24.173 21.2057 24.1378 21.1705 24.2787Z" fill="#699911"/>
<path d="M21.4523 24.3491C21.4875 24.8775 21.3114 25.3707 21.2409 25.8991C21.1705 26.3571 21.2409 26.8151 21.3114 27.2378C21.4523 28.0129 21.7694 28.9993 22.5092 29.3868C23.1785 29.7391 24.024 29.7038 24.6581 29.3516C25.2218 29.0697 25.5741 28.5061 25.6798 27.9072C25.7502 27.5549 25.715 27.2026 25.5389 26.8855C25.3627 26.5685 24.94 26.2866 24.6229 26.5685C24.5525 26.6389 24.5525 26.7446 24.5877 26.8151C24.6934 27.0264 24.94 27.0264 25.0104 27.2378C25.0809 27.414 25.0809 27.6253 25.0457 27.8015C24.94 28.2595 24.6934 28.647 24.2706 28.8583C23.7774 29.1049 23.1433 29.1049 22.6501 28.8583C22.3683 28.7174 22.2274 28.4004 22.0864 28.1185C21.9103 27.7663 21.8046 27.3787 21.7341 26.9912C21.6637 26.5685 21.5932 26.1105 21.6637 25.6878C21.7341 25.2298 21.8398 24.7718 21.7341 24.2786C21.6989 24.1377 21.4171 24.1729 21.4523 24.3491Z" fill="#699911"/>
<path d="M18.0351 8.3201L17.9999 8.28487C17.859 8.03827 17.6476 7.8269 17.401 7.68598C17.1544 7.54507 16.8726 7.47461 16.5555 7.47461C16.2384 7.47461 15.9566 7.54507 15.71 7.68598C15.4634 7.8269 15.252 8.03827 15.1111 8.28487L15.0759 8.3201C14.935 8.60193 14.8293 8.88376 14.8293 9.16559C14.8293 9.48265 14.8998 9.76448 15.0759 10.0111C15.2168 10.2577 15.4282 10.4691 15.6748 10.61C15.9566 10.7509 16.2384 10.8566 16.5203 10.8566C16.8373 10.8566 17.1192 10.7861 17.3658 10.61C17.6124 10.4691 17.8237 10.2577 17.9647 10.0111C18.1056 9.72925 18.2113 9.44742 18.2113 9.16559C18.2465 8.88376 18.176 8.60193 18.0351 8.3201Z" fill="#DAFB6D"/>
<path d="M11.9758 10.8566C9.75635 12.0192 7.92445 13.4283 6.69144 15.6477C5.91641 17.0569 4.96523 19.1002 5.59935 20.7207C5.98687 21.7775 7.92445 21.7423 7.74831 20.4388C7.36079 17.1978 10.0382 13.6045 12.6803 12.0896C13.4554 11.6316 12.7508 10.4691 11.9758 10.8566Z" fill="#DAFB6D"/>
<path d="M6.83236 1.979C7.67785 1.979 7.67785 0.675537 6.83236 0.675537C5.98687 0.710766 5.98687 1.979 6.83236 1.979Z" fill="#FEFDFA"/>
<path d="M4.96522 1.69711C4.11973 1.5562 3.41515 1.83803 2.81626 2.43692C2.28783 3.00058 1.7594 3.91653 1.97077 4.72679C2.11169 5.25522 2.88672 5.39614 3.16855 4.90293C3.41515 4.44496 3.5913 3.98698 3.94358 3.56424C4.0845 3.38809 4.29587 3.24718 4.43679 3.07103C4.61293 2.89489 4.71862 2.71875 4.96522 2.64829C5.4232 2.5426 5.45842 1.76757 4.96522 1.69711Z" fill="#FEFDFA"/>
<path d="M31.4221 1.06287C30.0129 0.851493 28.3572 1.69698 28.181 3.21182C28.0753 4.02209 29.2027 4.12777 29.5902 3.59934C29.9777 3.03568 30.5061 2.3311 31.2459 2.3311C31.9505 2.36633 32.1619 1.20378 31.4221 1.06287Z" fill="#FEFDFA"/>
<defs>
<linearGradient id="paint0_linear_0_12059" x1="20.4307" y1="3.70504" x2="21" y2="41" gradientUnits="userSpaceOnUse">
<stop stop-color="#AEE25B"/>
<stop offset="0.5" stop-color="#90BB22"/>
<stop offset="1" stop-color="#86AC07"/>
</linearGradient>
</defs>
</svg>
