<svg width="37" height="43" viewBox="0 0 37 43" fill="none" xmlns="http://www.w3.org/2000/svg">
<path d="M31.5556 25.4712C30.656 28.0941 29.2684 30.1419 27.657 31.7349C22.5768 36.6948 15.1258 37.4157 12.717 37.5609C8.58146 37.8856 3.30855 35.6347 3.30855 35.6347L3.32089 35.5886L3.49681 34.747L11.0721 0.731986C11.0721 0.731986 16.2517 0.933609 23.6509 6.12367C31.1545 11.2923 33.8663 18.6838 31.5556 25.4712Z" fill="url(#paint0_linear_0_15155)"/>
<path d="M26.0305 23.7947C22.8785 33.1713 13.6772 36.1886 7.63706 36.2504C5.85512 36.2671 4.34381 36.0106 3.3549 35.6471C2.59634 35.3453 2.16354 34.9332 2.09026 34.4692C1.91647 33.0896 3.26552 26.3903 5.01433 19.3043C7.23508 10.2709 10.0555 0.657391 11.1061 0.790513C14.0521 1.03607 31.1914 8.38918 26.0305 23.7947Z" fill="url(#paint1_linear_0_15155)"/>
<path opacity="0.5" d="M7.37058 16.0346C7.54946 18.5018 20.9443 12.361 22.0424 11.0256C23.1405 9.69025 15.5001 3.00377 12.7746 3.40975C10.0491 3.81573 7.24286 14.6674 7.37058 16.0346Z" fill="#9AD134"/>
<path opacity="0.5" d="M7.12181 19.1773C6.41656 17.7542 20.3712 14.1332 22.0603 14.8322C23.7494 15.5312 24.1511 22.6992 21.3832 25.6613C18.6276 28.5773 7.53575 20.0288 7.12181 19.1773Z" fill="#9AD134"/>
<path opacity="0.5" d="M6.3307 20.8418C5.10164 21.0065 3.1882 33.134 4.78441 34.5488C6.38063 35.9636 17.1277 32.5207 17.6555 29.9958C18.1372 27.4586 7.24634 20.7413 6.3307 20.8418Z" fill="#9AD134"/>
<path opacity="0.5" d="M4.25439 33.0241C4.53592 34.1857 7.65068 34.7233 12.227 32.9366C16.8033 31.1499 17.383 28.9845 17.383 28.9845C17.383 28.9845 17.9138 29.7684 17.7411 30.4134C17.5684 31.0584 13.9375 33.7401 9.22039 34.946C6.40856 35.6745 4.98033 35.2922 4.62735 34.9508C4.32044 34.6218 4.25439 33.0241 4.25439 33.0241Z" fill="#6B900E"/>
<path opacity="0.5" d="M7.12189 19.1772C7.12189 19.1772 13.6022 24.6644 18.6338 25.4189C23.6194 26.161 23.448 19.0547 23.448 19.0547C23.448 19.0547 23.6506 25.6756 20.4883 26.6065C17.3137 27.5835 8.74532 21.0436 7.12189 19.1772Z" fill="#6B900E"/>
<path opacity="0.5" d="M7.37069 16.0345C7.52052 16.7659 15.348 14.2695 18.8582 12.5924C22.3683 10.9152 21.6631 9.4921 21.6631 9.4921C21.6631 9.4921 22.406 10.0366 22.3683 10.9152C22.2845 11.7815 13.9242 15.7152 10.7866 16.554C7.55681 17.3681 7.55171 16.2805 7.37069 16.0345Z" fill="#6B910E"/>
<path d="M11.1184 0.744337C11.1184 0.744337 11.8712 0.698978 13.1028 1.07806C14.3467 1.41106 30.8827 6.77584 27.6963 23.1049C24.5996 38.9149 6.1374 36.6882 5.55079 36.4817C4.96419 36.2753 3.34259 35.6931 3.34259 35.6931C3.34259 35.6931 22.05 38.4793 26.3602 22.7473C30.6705 7.01527 13.6829 1.67771 11.1184 0.744337Z" fill="#9AD134"/>
<path d="M7.60796 18.4681C7.60796 18.4681 15.9059 15.5052 18.9079 15.1733C21.8975 14.8874 22.6988 15.3981 22.6988 15.3981C22.6988 15.3981 22.3186 14.6051 21.8118 14.4694C21.3051 14.3338 17.8515 14.693 13.2784 16.2831C8.70533 17.8732 7.60796 18.4681 7.60796 18.4681Z" fill="#DDFF8C"/>
<path d="M7.59351 14.4647C7.59351 14.4647 10.4658 5.21068 12.3932 4.09731C14.3206 2.98393 17.0958 5.15871 17.0958 5.15871C17.0958 5.15871 14.8274 3.1196 12.6061 3.11746C10.3849 3.11532 8.03751 12.8061 7.59351 14.4647Z" fill="#DDFF8C"/>
<path d="M5.97717 21.2405C6.65337 20.9278 15.0356 26.1341 17.4293 28.9967C17.4293 28.9967 16.6228 27.3984 12.5303 24.4266C8.39178 21.4425 5.99675 20.0607 5.97717 21.2405Z" fill="#DDFF8C"/>
<path d="M18.1685 33.2437C18.1685 33.2437 25.1822 30.2826 27.1291 21.719C29.076 13.1554 22.8014 7.82202 22.8014 7.82202C22.8014 7.82202 28.0649 13.4279 26.7671 21.2271C25.4354 28.9679 18.1685 33.2437 18.1685 33.2437Z" fill="#6A9921"/>
<path d="M10.7031 7.64431C10.25 9.15236 12.0976 7.96824 12.2002 6.66263C12.2905 5.40308 11.0945 6.36662 10.7031 7.64431Z" fill="white"/>
<path d="M14.4187 15.8967C13.1617 16.3502 15.235 16.9052 16.3693 16.172C17.5037 15.4389 16.1644 15.2778 14.4187 15.8967Z" fill="white"/>
<path d="M24.4964 8.86813C22.8385 7.68371 24.7213 11.3477 25.8166 12.974C26.9241 14.5542 27.4682 11.0462 24.4964 8.86813Z" fill="white"/>
<path d="M6.57351 20.8573C5.43077 20.6995 6.86737 21.9728 8.83288 22.7459C10.7984 23.5189 7.85445 21.0521 6.57351 20.8573Z" fill="white"/>
<path d="M12.902 1.55013C11.9419 1.44032 13.3034 2.98239 16.4886 3.31986C18.0401 3.51441 16.6915 2.30697 12.902 1.55013Z" fill="white"/>
<path opacity="0.5" d="M9.96752 2.46068C9.96752 2.46068 7.34883 13.165 6.17643 18.2823C4.99169 23.4456 2.38167 31.5355 2.38167 31.5355C2.38167 31.5355 5.29485 14.9357 9.96752 2.46068Z" fill="#BBE35A"/>
<defs>
<linearGradient id="paint0_linear_0_15155" x1="26.1043" y1="16.0431" x2="14.4365" y2="38.8581" gradientUnits="userSpaceOnUse">
<stop stop-color="#87C625"/>
<stop offset="1" stop-color="#5F9C00"/>
</linearGradient>
<linearGradient id="paint1_linear_0_15155" x1="5.42121" y1="17.4069" x2="26.7636" y2="25.037" gradientUnits="userSpaceOnUse">
<stop stop-color="#DCF580"/>
<stop offset="1" stop-color="#B2EF54"/>
</linearGradient>
</defs>
</svg>
