<svg width="35" height="36" viewBox="0 0 35 36" fill="none" xmlns="http://www.w3.org/2000/svg">
<g clip-path="url(#clip0_0_13362)">
<path d="M35 18C35 27.9223 27.1466 36 17.5 36C7.85336 36 0 27.9223 0 18C0 8.07774 7.85336 0 17.5 0C27.1466 0 35 8.07774 35 18Z" fill="#FFA73E"/>
<path d="M35 18C35 27.9223 27.1466 36 17.5 36C7.85336 36 0 27.9223 0 18C0 8.07774 7.85336 0 17.5 0C27.1466 0 35 8.07774 35 18Z" fill="url(#paint0_linear_0_13362)"/>
<path d="M17.5 34.9188C26.5844 34.9188 33.9487 27.344 33.9487 18C33.9487 8.65607 26.5844 1.0813 17.5 1.0813C8.41557 1.0813 1.05121 8.65607 1.05121 18C1.05121 27.344 8.41557 34.9188 17.5 34.9188Z" fill="url(#paint1_linear_0_13362)"/>
<path d="M22.1997 8.6501C21.3958 11.8303 19.2933 14.0565 17.5618 13.9929C15.8304 13.9293 13.7279 11.7667 12.924 8.6501C12.1201 5.53349 14.1608 2.28968 17.5618 2.22607C20.9629 2.22607 23.0035 5.46989 22.1997 8.6501Z" fill="#9CCBFF"/>
<path d="M11.9965 9.15887C14.2845 11.5122 15.0884 14.438 14.2226 15.9645C13.2951 17.491 10.3887 18.2543 7.42052 17.3638C4.32864 16.537 2.5972 13.1023 4.26681 10.0493C5.93642 6.99632 9.7085 6.80551 11.9965 9.15887Z" fill="#9CCBFF"/>
<path d="M7.29682 18.5087C10.3887 17.6183 13.2951 18.3815 14.1608 19.9716C14.9647 21.5617 14.1608 24.4875 11.9346 26.7773C9.70848 29.067 5.9364 28.8762 4.20495 25.8868C2.4735 22.8338 4.20495 19.3356 7.29682 18.5087Z" fill="#9CCBFF"/>
<path d="M12.8004 27.3497C13.6043 24.1695 15.7067 21.9433 17.4382 22.0069C19.1696 22.0705 21.2721 24.2331 22.076 27.3497C22.8799 30.4663 20.8392 33.7101 17.4382 33.7737C14.0371 33.8373 11.9965 30.5299 12.8004 27.3497Z" fill="#9CCBFF"/>
<path d="M23.0036 26.841C20.7156 24.4876 19.9117 21.5618 20.7774 20.0353C21.705 18.5088 24.6113 17.7456 27.6414 18.636C30.6714 19.4629 32.4029 22.8975 30.7332 25.9505C29.0636 29.0035 25.2915 29.1943 23.0036 26.841Z" fill="#9CCBFF"/>
<path d="M27.7032 17.4912C24.6113 18.3816 21.7049 17.6184 20.8392 16.0283C20.0353 14.4382 20.8392 11.5124 23.0654 9.22264C25.2915 6.99649 29.0636 7.1873 30.795 10.1767C32.5265 13.1661 30.795 16.6643 27.7032 17.4912Z" fill="#9CCBFF"/>
<path opacity="0.84" d="M9.94553 3.90985C10.2359 4.38178 9.73258 5.21111 8.78234 5.78243C7.8321 6.35376 6.83481 6.44442 6.52343 5.98421C6.23309 5.51229 6.73638 4.68296 7.68662 4.11163C8.64893 3.51247 9.65519 3.43793 9.94553 3.90985Z" fill="url(#paint2_linear_0_13362)"/>
<path opacity="0.84" d="M12.5264 3.57914C12.5851 3.84322 12.2078 4.2229 11.6909 4.40473C11.1739 4.58656 10.7017 4.5315 10.643 4.26742C10.5843 4.00334 10.9616 3.62366 11.4785 3.44183C11.9955 3.26 12.4677 3.31506 12.5264 3.57914Z" fill="url(#paint3_linear_0_13362)"/>
<path opacity="0.84" d="M2.68364 15.8191C2.68364 16.2871 2.32286 16.6381 1.84182 16.6381C1.36078 16.6381 1 16.2871 1 15.8191C1 15.351 1.36078 15 1.84182 15C2.32286 15 2.68364 15.351 2.68364 15.8191Z" fill="url(#paint4_linear_0_13362)"/>
</g>
<defs>
<linearGradient id="paint0_linear_0_13362" x1="17.9535" y1="-4.49513" x2="17.9535" y2="49.4464" gradientUnits="userSpaceOnUse">
<stop offset="0.030856" stop-color="#56A9FF"/>
<stop offset="1" stop-color="#2C78DC"/>
</linearGradient>
<linearGradient id="paint1_linear_0_13362" x1="17.9263" y1="-3.14381" x2="17.9263" y2="47.5574" gradientUnits="userSpaceOnUse">
<stop offset="0.030856" stop-color="#56A9FF"/>
<stop offset="1" stop-color="#2C78DC"/>
</linearGradient>
<linearGradient id="paint2_linear_0_13362" x1="7.56445" y1="3.87684" x2="9.06128" y2="6.34122" gradientUnits="userSpaceOnUse">
<stop stop-color="white"/>
<stop offset="1" stop-color="white"/>
</linearGradient>
<linearGradient id="paint3_linear_0_13362" x1="11.4415" y1="3.33219" x2="11.9239" y2="4.64102" gradientUnits="userSpaceOnUse">
<stop stop-color="white"/>
<stop offset="1" stop-color="white"/>
</linearGradient>
<linearGradient id="paint4_linear_0_13362" x1="1.00228" y1="15.8206" x2="2.68428" y2="15.8206" gradientUnits="userSpaceOnUse">
<stop stop-color="white"/>
<stop offset="1" stop-color="white"/>
</linearGradient>
<clipPath id="clip0_0_13362">
<rect width="35" height="36" fill="white"/>
</clipPath>
</defs>
</svg>
