<svg width="30" height="37" viewBox="0 0 30 37" fill="none" xmlns="http://www.w3.org/2000/svg">
<path d="M29.913 18.0997C29.913 21.8909 29.0808 25.4508 27.6938 28.3173C25.5208 32.8019 21.9146 35.8071 17.8461 35.992C17.7074 35.992 17.5687 35.992 17.43 35.992C16.5978 35.992 15.7656 35.8533 14.9334 35.6222C14.5635 35.5297 14.2399 35.391 13.87 35.2523C13.3152 35.0211 12.7604 34.6975 12.2056 34.3739C7.90592 31.5536 4.94699 25.3121 4.94699 18.0535C4.94699 11.9507 7.07372 6.58765 10.2638 3.35132C11.6508 1.96432 13.2227 0.993424 14.8871 0.484858C15.6731 0.253691 16.5053 0.11499 17.3837 0.11499C17.7998 0.11499 18.2622 0.161229 18.6783 0.207462C18.7245 0.207462 18.7707 0.207462 18.7707 0.207462C18.817 0.207462 18.817 0.207462 18.817 0.207462C25.0585 1.31706 29.913 8.89932 29.913 18.0997Z" fill="url(#paint0_linear_0_13307)"/>
<path d="M18.447 33.819C18.4007 34.2813 18.3545 34.6512 18.262 34.9748C18.1233 35.5758 17.9846 35.8995 17.8459 35.992C17.8459 35.992 17.8459 35.992 17.7997 35.992C16.0428 36.2694 12.4366 35.992 12.4366 35.992C12.4366 35.992 12.3904 35.6683 12.2979 35.0673C12.2517 34.8824 12.2517 34.6512 12.2055 34.3738C11.512 28.872 9.29277 10.7948 10.2637 3.39749C10.4948 1.64062 10.9109 0.438559 11.5582 0.207392C11.6044 0.161159 11.6969 0.161156 11.7431 0.161156C15.3493 -0.20871 18.0309 0.161155 18.6781 0.253621C18.7244 0.253621 18.7706 0.253621 18.7706 0.253621C18.8168 0.253621 18.8168 0.253621 18.8168 0.253621C18.8168 0.253621 18.8168 1.17829 18.8631 2.70399C19.0018 9.36158 19.1867 27.485 18.447 33.819Z" fill="url(#paint1_linear_0_13307)"/>
<path d="M24.9197 18.0996C24.9197 24.8959 22.2844 30.8138 18.4471 33.819C17.6611 34.4662 16.7827 34.9748 15.9043 35.2984C15.5806 35.4371 15.257 35.5296 14.9796 35.6221C14.1936 35.8532 13.3614 35.9919 12.483 35.9919C9.47782 35.9919 6.70383 34.42 4.53086 31.8772C1.75687 28.5946 0 23.6476 0 18.0996C0 8.62183 5.1319 0.854635 11.6046 0.207369C11.882 0.161136 12.1594 0.161133 12.483 0.161133C13.3152 0.161133 14.1474 0.299834 14.9796 0.531C16.4128 0.9471 17.7536 1.73307 18.9556 2.7502C22.5156 5.89406 24.9197 11.5808 24.9197 18.0996Z" fill="url(#paint2_linear_0_13307)"/>
<path opacity="0.2" d="M12.0206 26.699C15.7996 26.699 18.8631 23.0766 18.8631 18.6082C18.8631 14.1397 15.7996 10.5173 12.0206 10.5173C8.24154 10.5173 5.17804 14.1397 5.17804 18.6082C5.17804 23.0766 8.24154 26.699 12.0206 26.699Z" fill="#E62900"/>
<path opacity="0.6" d="M5.22446 17.6373C6.19536 21.8446 8.59949 18.1921 11.1886 13.6613C13.7776 9.13042 17.7074 14.1236 17.7074 14.1236C17.7074 14.1236 15.2571 9.08419 10.6337 10.1938C6.01042 11.3034 5.22446 17.6373 5.22446 17.6373Z" fill="#FFB92C"/>
<path opacity="0.97" d="M5.82541 21.9368C6.19528 19.394 9.709 25.4968 12.9453 25.8666C16.1354 26.2365 18.0772 22.4454 18.0772 22.4454C18.0772 22.4454 16.3666 26.93 11.5121 26.6988C6.65761 26.4677 5.82541 21.9368 5.82541 21.9368Z" fill="#E08700"/>
<path opacity="0.97" d="M11.7895 0.161147C11.7895 0.161147 21.0824 0.253612 23.8564 13.6613C26.6304 27.1152 16.8752 34.8361 16.8752 34.8361C16.8752 34.8361 26.0756 30.5827 24.966 15.4644C23.8101 0.392317 14.7947 -0.0237865 11.7895 0.161147Z" fill="#FFF388"/>
<path d="M16.274 0.762268C14.887 0.484868 19.4179 3.35133 21.3597 6.44896C23.3477 9.50036 23.5789 8.48323 23.5789 8.48323C23.5789 8.48323 21.4522 1.6407 16.274 0.762268Z" fill="#FFFFC4"/>
<path opacity="0.3" d="M5.54792 32.9868C3.46742 29.7505 9.24659 28.5022 13.9161 26.884C18.5857 25.2659 21.4984 22.6306 22.608 23.0929C23.7176 23.5552 21.1748 32.7557 15.9966 35.1598C10.8185 37.5639 5.54792 32.9868 5.54792 32.9868Z" fill="#F59222"/>
<path d="M4.99328 7.32749C4.66965 9.73162 7.25872 8.99189 7.02755 6.63399C6.70392 4.32232 5.17822 5.98672 4.99328 7.32749Z" fill="#FFFFC4"/>
<path opacity="0.97" d="M3.09198 29.0341C2.39848 25.844 5.81974 30.8834 6.88311 32.7328C7.99271 34.5359 4.34028 32.3167 3.09198 29.0341Z" fill="#FFB000"/>
<path d="M12.4829 10.8409C11.6045 9.77752 7.25859 11.2107 7.02742 13.6611C6.79626 16.1115 9.57025 14.4471 10.911 13.0138C12.2056 11.5806 12.6679 11.072 12.4829 10.8409Z" fill="#FFE486"/>
<defs>
<linearGradient id="paint0_linear_0_13307" x1="17.5" y1="12" x2="32" y2="19" gradientUnits="userSpaceOnUse">
<stop stop-color="#FFB300"/>
<stop offset="0.2956" stop-color="#FFAD00"/>
<stop offset="0.6704" stop-color="#FF9E00"/>
<stop offset="1" stop-color="#FF8A00"/>
</linearGradient>
<linearGradient id="paint1_linear_0_13307" x1="14.5108" y1="36.1218" x2="14.5108" y2="0.00981084" gradientUnits="userSpaceOnUse">
<stop stop-color="#FFB300"/>
<stop offset="0.2956" stop-color="#FFAD00"/>
<stop offset="0.6704" stop-color="#FF9E00"/>
<stop offset="1" stop-color="#FF8A00"/>
</linearGradient>
<linearGradient id="paint2_linear_0_13307" x1="12.4599" y1="0.161133" x2="12" y2="37.5" gradientUnits="userSpaceOnUse">
<stop stop-color="#FFCC15"/>
<stop offset="1" stop-color="#FFA900"/>
</linearGradient>
</defs>
</svg>
