<svg width="35" height="37" viewBox="0 0 35 37" fill="none" xmlns="http://www.w3.org/2000/svg">
<path d="M34.707 19.3337C34.707 28.7922 27.0479 36.4514 17.5893 36.4514C9.79173 36.4514 3.23993 31.2838 1.16366 24.1783C0.702264 22.6557 0.471567 21.0408 0.471567 19.3337C0.471567 19.3337 -1.23559 14.3045 2.08645 8.81387C2.08645 8.81387 2.08645 8.81386 2.08645 8.76772C2.5017 8.07563 2.9631 7.38354 3.56291 6.73759L3.60905 6.69145C4.4857 5.67638 5.54691 4.66132 6.88495 3.64625C14.8209 -2.30574 27.1863 0.416487 32.2155 9.59824C32.2616 9.69052 32.3078 9.7828 32.3539 9.87508C32.4462 10.0135 32.4923 10.1519 32.5846 10.2903C32.6769 10.4749 32.7692 10.6594 32.8615 10.8901C32.8615 10.8901 32.8615 10.9363 32.9076 10.9363C33.4613 12.182 33.8765 13.5201 34.1534 14.9504C34.4302 15.9193 34.5686 16.8883 34.6609 17.9495C34.707 18.3647 34.707 18.8261 34.707 19.3337Z" fill="#FFDFD7"/>
<path d="M19.6231 19.073C19.6231 19.073 11.1062 15.9203 10.0239 24.2961C10.0239 24.2961 11.0121 27.9664 14.7294 29.331C14.7294 29.331 15.4823 22.8374 19.6231 19.073Z" fill="url(#paint0_linear_0_15127)"/>
<path d="M20.423 18.1318C20.423 18.1318 19.623 25.7547 25.3167 27.0252C25.3167 27.0252 28.0459 24.5784 28.6105 20.5787C28.6105 20.5787 28.5635 20.7669 25.2696 20.5787C21.9758 20.3905 20.9876 17.2378 20.9876 17.2378L20.423 18.1318Z" fill="url(#paint1_linear_0_15127)"/>
<path d="M20.9407 15.9204C21.223 16.1086 27.4813 15.591 27.8577 12.6736C27.8577 12.6736 26.4461 8.90923 22.964 7.87402C22.964 7.87402 22.5405 14.0382 20.0937 16.2027L20.9407 15.9204Z" fill="url(#paint2_linear_0_15127)"/>
<path d="M17.0822 15.779C17.0822 15.779 20.5643 8.90896 16.3294 6.4621C16.3294 6.4621 14.6354 6.22683 10.8239 7.8267C10.8239 7.8267 15.9059 9.89711 15.8588 15.2614L17.0822 15.779Z" fill="url(#paint3_linear_0_15127)"/>
<path d="M4.98896 13.0969C4.98896 13.0969 8.65925 12.2029 10.6356 15.779C10.6356 15.779 9.55329 16.4849 8.98863 19.1199C8.98863 19.1199 4.00081 18.5082 0.84813 22.7902C0.84813 22.7902 0.330527 20.3434 0.518747 19.3081C0.612857 18.32 3.29499 13.8968 4.98896 13.0969Z" fill="url(#paint4_linear_0_15127)"/>
<path d="M10.8222 25.5447C10.8222 25.5447 8.1722 28.5282 8.4866 33.0488C8.4866 33.0488 12.0798 35.7611 16.9306 35.8968C16.9306 35.8968 15.134 30.9693 15.2687 28.7091C15.3136 28.7543 12.484 28.1214 10.8222 25.5447Z" fill="url(#paint5_linear_0_15127)"/>
<path d="M26.3416 24.9223C26.3416 24.9223 28.2711 27.4153 32.8193 26.8811C32.8193 26.8811 35.0244 23.3196 34.7947 18.9568C34.7947 18.9568 32.268 19.6691 28.5468 19.1349C28.5468 19.1349 27.8577 22.9189 26.3416 24.9223Z" fill="url(#paint6_linear_0_15127)"/>
<path d="M26.9331 11.4284C26.9331 11.4284 30.0816 9.75205 30.5764 6.97287C30.5764 6.97287 28.5973 4.41426 25.6737 2.9585C25.6737 2.9585 25.7187 6.48761 24.4593 8.78154L26.9331 11.4284Z" fill="url(#paint7_linear_0_15127)"/>
<path d="M17.7583 6.50097C17.7583 6.50097 18.6838 1.49201 15.2462 0.605469C15.2462 0.605469 10.7069 0.827107 7.04902 3.97433C7.04902 3.97433 12.1613 3.84135 14.5852 6.72261L17.7583 6.50097Z" fill="url(#paint8_linear_0_15127)"/>
<path d="M2.52645 8.99684C2.52645 8.99684 6.24532 8.11405 9.87237 8.99684C9.87237 8.99684 7.89815 10.2769 5.83211 12.1749C5.83211 12.1749 1.70003 13.6756 0.552228 17.0744C0.552228 17.0744 -0.182363 13.3225 2.52645 8.99684Z" fill="url(#paint9_linear_0_15127)"/>
<path opacity="0.2" d="M0.471648 12.228C0.28709 14.3043 2.31723 14.212 3.93211 12.7355C5.82382 10.9361 7.6694 7.29108 11.499 5.9069C20.45 2.72327 26.402 9.69033 27.3248 12.228C27.3248 12.228 21.7881 6.09145 14.9594 7.15266C8.1308 8.21387 1.48672 16.7497 0.471648 19.3335C0.471648 19.3335 -0.58956 16.8419 0.471648 12.228Z" fill="#CA1B3B"/>
<path opacity="0.64" d="M0.471546 19.3335C0.471546 19.3335 6.33125 6.27602 18.2352 7.15267C30.1392 8.07546 30.6006 23.2553 23.3567 27.5463C16.0667 31.7911 8.03841 25.793 9.14576 18.8721C10.2531 11.9512 17.9584 16.4267 19.2503 19.0567C19.2503 19.0567 20.6345 17.7647 20.7729 16.6113C20.9575 15.4578 19.4349 16.9342 18.0507 16.2883C16.6665 15.6423 13.852 13.5199 10.4838 15.4116C7.11563 17.3034 6.10056 30.0378 17.4047 29.8994C28.7089 29.761 32.1693 14.6273 24.3718 8.53686C16.5742 2.44645 5.73144 7.33724 0.471546 19.3335Z" fill="#CC5748"/>
<path opacity="0.5" d="M10.3917 15.827C13.4831 13.9814 16.3437 15.504 17.5895 16.9805C18.8352 18.4569 19.4351 18.4569 19.4351 18.4569C19.4351 18.4569 20.9577 17.4419 20.7731 16.5652C20.5424 15.6886 19.3889 16.7036 18.2816 16.4729C17.1742 16.2422 16.5283 14.9503 13.4831 14.3966C11.4529 14.0737 10.3917 15.827 10.3917 15.827Z" fill="#D31F90"/>
<path opacity="0.5" d="M4.62413 12.505C4.48571 12.6896 8.73054 8.26018 14.1289 7.29125C19.5272 6.27618 21.9264 7.33739 21.9264 7.33739C21.9264 7.33739 19.3888 5.72251 14.498 6.69143C9.60719 7.66036 4.62413 12.505 4.62413 12.505Z" fill="#D31F90"/>
<path opacity="0.2" d="M9.46889 22.748C9.46889 22.748 16.5744 29.8073 23.5414 25.3779C30.4623 20.9485 26.5405 10.844 26.5405 10.844C26.5405 10.844 32.3079 22.0097 23.3569 27.5465C14.4058 33.0832 9.88414 26.1623 9.46889 22.748Z" fill="#CA1B3B"/>
<path opacity="0.2" d="M8.7768 17.6724C8.7768 17.6724 9.33047 14.1658 14.129 12.5048C18.8813 10.8438 21.2344 15.3193 20.8192 16.7958C20.4039 18.2261 19.8964 18.6413 19.4812 18.4568C19.0659 18.2722 16.6205 14.6734 13.2985 14.9963C9.97642 15.3193 8.7768 17.6724 8.7768 17.6724Z" fill="#CA1B3B"/>
<path opacity="0.2" d="M11.1038 35.2979C6.39757 33.1755 21.5313 35.5747 26.4221 33.1294C31.3129 30.684 33.9428 25.4241 33.9428 25.4241C33.9428 25.4241 31.359 32.6218 23.2385 35.2979C15.1641 37.974 11.1038 35.2979 11.1038 35.2979Z" fill="#CA1B3B"/>
<path d="M8.49999 3.83087C7.25422 5.49189 9.83803 5.49189 11.7297 3.69245C13.5753 1.93915 9.65347 2.30827 8.49999 3.83087Z" fill="white"/>
<path d="M12.2372 8.81403C11.7297 9.32156 12.2372 10.0598 13.483 9.22928C14.7288 8.39877 13.0677 7.98352 12.2372 8.81403Z" fill="white"/>
<path d="M32.5847 12.3665C32.1694 11.8129 31.3389 12.2281 32.0772 13.5662C32.8154 14.9042 33.3691 13.3355 32.5847 12.3665Z" fill="white"/>
<path d="M20.5423 22.425C18.3738 24.3167 21.0499 25.7471 22.5263 23.8553C24.0028 21.9636 22.0188 21.1331 20.5423 22.425Z" fill="white"/>
<path opacity="0.2" d="M0.42551 19.6105C0.42551 19.6105 1.94811 16.6114 3.05546 15.3657C4.11666 14.1199 -0.866396 24.5013 8.40763 33.3139C8.40763 33.3139 1.02532 29.4843 0.42551 19.6105Z" fill="#CA0092"/>
<path d="M11.8681 15.7811C10.3916 16.9807 12.837 17.1191 13.9444 16.3809C15.0056 15.6888 12.3756 15.3658 11.8681 15.7811Z" fill="white"/>
<path opacity="0.64" d="M0.194871 14.0737C0.425568 13.4739 2.40956 13.9815 3.00938 14.2122C3.60919 14.4429 0.933101 18.4109 0.933101 18.4109L0.471707 19.3798C0.471707 19.3336 -0.312663 16.3346 0.194871 14.0737Z" fill="#CC5748"/>
<defs>
<linearGradient id="paint0_linear_0_15127" x1="14.7991" y1="29.3246" x2="14.7991" y2="18.4673" gradientUnits="userSpaceOnUse">
<stop stop-color="#FF6600"/>
<stop offset="1" stop-color="#FF7A00"/>
</linearGradient>
<linearGradient id="paint1_linear_0_15127" x1="24.5079" y1="27.0293" x2="24.5079" y2="17.2574" gradientUnits="userSpaceOnUse">
<stop stop-color="#FF6600"/>
<stop offset="1" stop-color="#FF7A00"/>
</linearGradient>
<linearGradient id="paint2_linear_0_15127" x1="23.9756" y1="16.1882" x2="23.9756" y2="7.852" gradientUnits="userSpaceOnUse">
<stop stop-color="#FF6600"/>
<stop offset="1" stop-color="#FF7A00"/>
</linearGradient>
<linearGradient id="paint3_linear_0_15127" x1="14.6569" y1="15.7738" x2="14.6569" y2="6.45923" gradientUnits="userSpaceOnUse">
<stop stop-color="#FF6600"/>
<stop offset="1" stop-color="#FF7A00"/>
</linearGradient>
<linearGradient id="paint4_linear_0_15127" x1="5.52181" y1="22.8374" x2="5.52181" y2="13.013" gradientUnits="userSpaceOnUse">
<stop stop-color="#FF6600"/>
<stop offset="1" stop-color="#FF7A00"/>
</linearGradient>
<linearGradient id="paint5_linear_0_15127" x1="12.7234" y1="35.9436" x2="12.7234" y2="25.5641" gradientUnits="userSpaceOnUse">
<stop stop-color="#FF6600"/>
<stop offset="1" stop-color="#FF7A00"/>
</linearGradient>
<linearGradient id="paint6_linear_0_15127" x1="30.5869" y1="26.9593" x2="30.5869" y2="18.941" gradientUnits="userSpaceOnUse">
<stop stop-color="#FF6600"/>
<stop offset="1" stop-color="#FF7A00"/>
</linearGradient>
<linearGradient id="paint7_linear_0_15127" x1="27.4832" y1="11.4473" x2="27.4832" y2="2.95122" gradientUnits="userSpaceOnUse">
<stop stop-color="#FF6600"/>
<stop offset="1" stop-color="#FF7A00"/>
</linearGradient>
<linearGradient id="paint8_linear_0_15127" x1="12.4356" y1="6.69047" x2="12.4356" y2="0.595451" gradientUnits="userSpaceOnUse">
<stop stop-color="#FF6600"/>
<stop offset="1" stop-color="#FF7A00"/>
</linearGradient>
<linearGradient id="paint9_linear_0_15127" x1="5.16295" y1="17.0928" x2="5.16295" y2="8.59615" gradientUnits="userSpaceOnUse">
<stop stop-color="#FF6600"/>
<stop offset="1" stop-color="#FF7A00"/>
</linearGradient>
</defs>
</svg>
