<svg width="37" height="33" viewBox="0 0 37 33" fill="none" xmlns="http://www.w3.org/2000/svg">
<path d="M35.6049 29.2483C35.1805 30.0498 32.1632 31.5114 29.9002 31.7942C27.6843 32.03 24.8555 32.3129 21.791 32.4543C12.1731 32.9258 0.480854 32.4071 0.0565373 28.5883C0.00939102 28.3526 0.00939107 28.1168 0.00939107 27.834C-0.367779 18.4047 10.7116 0.72482 16.0391 0.72482C17.6893 0.72482 20.5652 -0.0295222 22.4982 1.52631C27.5428 5.53374 32.8232 14.633 34.992 21.5163C35.4634 22.9779 35.7934 24.298 35.9349 25.5238V25.5709C36.1235 27.0796 36.0292 28.3997 35.6049 29.2483Z" fill="url(#paint0_linear_0_15194)"/>
<path opacity="0.2" d="M14.2004 1.19613C15.7091 0.206054 17.0292 1.52615 17.5478 2.1862C18.1136 2.84625 22.0267 2.1862 22.2624 1.80903C22.451 1.43186 22.4039 0.441786 18.915 0.488932C15.4734 0.488932 14.9548 0.77181 14.2004 1.19613Z" fill="#FFD8FF"/>
<path d="M18.3021 2.84619C18.3021 2.84619 25.044 16.1414 27.9671 25.995C27.9199 25.9479 27.0241 15.5757 18.3021 2.84619Z" fill="#4A98FF"/>
<path d="M18.3022 2.84629C18.1607 2.79914 16.9821 1.05473 15.8506 0.913294C14.719 0.771855 14.1061 1.29046 14.1061 1.29046C14.1061 1.29046 14.9076 0.771855 16.2277 0.677562C17.5007 0.583269 18.2079 1.47905 18.3493 1.85622C18.3965 2.23339 18.3022 2.84629 18.3022 2.84629Z" fill="#4A98FF"/>
<path d="M12.6445 4.77905C12.0316 5.4391 14.0588 4.92049 14.3417 4.68476C14.6246 4.49618 13.1159 4.30759 12.6445 4.77905Z" fill="white"/>
<path d="M5.24255 13.5484C4.81823 13.5484 5.61972 12.6527 5.99689 12.7469C6.37406 12.8412 5.9026 13.5484 5.24255 13.5484Z" fill="white"/>
<path d="M23.9596 21.2805C23.111 21.3276 24.0068 23.3549 24.8554 23.402C25.7512 23.4492 25.5155 21.1862 23.9596 21.2805Z" fill="white"/>
<path d="M7.17557 27.1265C6.98699 26.7022 7.92991 26.5136 8.30708 26.985C8.68425 27.5036 7.45845 27.7394 7.17557 27.1265Z" fill="white"/>
<path d="M17.3593 0.913198C16.7464 0.677467 17.7837 2.61046 18.3023 2.84619C18.7737 3.08192 19.5281 1.76183 17.3593 0.913198Z" fill="white"/>
<path d="M14.389 19.2059C13.9175 18.923 14.4833 17.6501 15.1433 17.1786C15.8034 16.7543 17.0292 18.0273 17.1235 18.7345C17.2649 19.4417 14.389 19.2059 14.389 19.2059Z" fill="#FFDFDE"/>
<path d="M16.4163 20.856C16.4163 20.0545 18.2078 20.1488 18.6793 20.4789C19.1508 20.7617 18.585 21.7518 17.5478 21.9875C16.5106 22.2233 16.4163 20.856 16.4163 20.856Z" fill="#FFDFDE"/>
<path d="M10.0987 10.7198C9.43862 9.44683 11.8902 8.07959 12.5974 8.07959C13.3518 8.07959 15.1433 8.92822 15.0962 9.49398C15.049 10.0126 11.1359 12.7471 10.0987 10.7198Z" fill="#FFDFDE"/>
<path d="M14.3419 11.6625C13.9647 10.2482 17.0292 9.11664 17.7364 10.7668C18.3965 12.4169 14.5776 12.5112 14.3419 11.6625Z" fill="#FFDFDE"/>
<path d="M11.6074 27.9279C10.5702 28.7765 11.4188 29.6252 12.2675 29.8609C13.069 30.0966 13.9647 28.6351 14.1533 28.2579C14.2948 27.8336 11.9846 27.5979 11.6074 27.9279Z" fill="#FFDFDE"/>
<path d="M15.8505 28.4467C15.8034 27.8338 16.7463 28.1639 16.9349 28.4467C17.1235 28.7768 15.8977 29.5783 15.8505 28.4467Z" fill="#FFDFDE"/>
<path d="M8.54624 7.26004C8.21621 7.30719 8.12192 6.69429 8.78197 5.70421C9.44202 4.71414 10.4792 5.46848 10.4792 6.08139C10.4321 6.69429 8.54624 7.26004 8.54624 7.26004Z" fill="#FFDFDE"/>
<path d="M7.03416 11.5686C6.84557 11.5686 7.31704 10.5785 8.02423 10.4842C8.73143 10.3899 8.92001 10.8614 8.87286 11.1442C8.82572 11.4271 7.03416 11.5686 7.03416 11.5686Z" fill="#FFDFDE"/>
<path d="M2.05272 25.6352C1.76984 25.0223 1.76984 23.1365 2.66562 22.7122C3.5614 22.2407 5.35296 24.4094 4.69291 25.3995C4.03286 26.3896 2.38274 26.3896 2.05272 25.6352Z" fill="#FFDFDE"/>
<path d="M1.90158 24.579C1.94873 25.0033 3.26883 23.9661 3.45741 23.4003C3.59885 22.8817 3.12739 22.646 2.84451 22.646C2.60878 22.6931 1.76014 23.4946 1.90158 24.579Z" fill="#FFFDFC"/>
<path d="M14.719 17.6502C14.3419 18.4045 14.4362 18.5931 14.5776 18.7345C14.719 18.876 15.992 19.1117 16.1806 19.1117C16.3692 19.0646 15.7091 17.1787 15.4734 17.1787C15.1905 17.1787 14.719 17.6502 14.719 17.6502Z" fill="#FFFDFC"/>
<path d="M16.5578 20.4789C16.4163 20.6675 17.8779 21.0446 18.0193 20.9975C18.1607 20.9503 18.6794 20.4317 18.6794 20.4317C18.6794 20.4317 17.1707 19.9131 16.5578 20.4789Z" fill="#CACCCD"/>
<path d="M12.5975 8.07955C11.4188 8.26813 11.8903 8.97532 13.5404 9.11676C15.1905 9.2582 13.8705 7.84381 12.5975 8.07955Z" fill="#CACCCD"/>
<path d="M9.06491 5.37427C8.73489 5.70429 8.40486 6.31719 8.45201 6.60007C8.45201 6.88295 9.81925 5.89288 9.81925 5.51571C9.81925 5.13854 9.06491 5.37427 9.06491 5.37427Z" fill="#CACCCD"/>
<path d="M7.12848 11.1439C7.12848 11.3325 8.35428 11.0968 8.59001 10.8139C8.7786 10.4839 7.64709 10.1539 7.12848 11.1439Z" fill="#CACCCD"/>
<path opacity="0.8" d="M7.03421 11.5682C7.03421 11.5682 8.11858 11.3325 8.4486 11.2382C8.77862 11.1439 8.87292 10.9553 8.87292 10.9553C8.87292 10.9553 8.96721 11.1911 8.87292 11.3325C8.77862 11.4268 7.45853 11.5682 7.03421 11.5682Z" fill="#BF2A92"/>
<path d="M10.0045 10.4368C10.4288 10.6254 11.8903 10.5783 12.5504 10.484C13.2104 10.3897 12.7861 8.97531 12.4561 8.59814C12.0789 8.22097 11.7017 8.3624 11.7017 8.3624C11.7017 8.3624 9.76874 9.30533 10.0045 10.4368Z" fill="#FFFDFC"/>
<path d="M16.5577 27.4095C15.8977 26.1365 18.3493 24.7693 19.0565 24.7693C19.8108 24.7693 21.6024 25.6179 21.5552 26.1837C21.5081 26.7023 17.5949 29.4368 16.5577 27.4095Z" fill="#FFDFDE"/>
<path d="M16.4635 27.1737C16.8878 27.3622 18.3494 27.3151 19.0094 27.2208C19.6695 27.1265 19.2451 25.7121 18.9151 25.335C18.538 24.9578 18.1608 25.0992 18.1608 25.0992C18.1608 25.0992 16.2749 26.0421 16.4635 27.1737Z" fill="#CCEDFF"/>
<path d="M9.81914 5.37415C9.77199 5.32701 9.91343 5.60989 10.0549 5.70418C10.1963 5.79847 10.3377 5.79847 10.3377 5.79847C10.3377 5.79847 10.2906 5.37415 9.81914 5.37415Z" fill="#FFFDFC"/>
<path d="M18.3022 25.0049C18.1608 25.0521 19.2452 25.1935 19.8109 25.1464C20.3767 25.0992 19.2923 24.7221 19.1037 24.7692C18.868 24.8164 18.3022 25.0049 18.3022 25.0049Z" fill="#FFFDFC"/>
<path opacity="0.3" d="M1.37661 29.2953C1.04659 28.3524 8.07139 31.7469 16.1806 31.6526C24.2897 31.6055 26.9299 29.4367 27.3542 29.7196C27.7785 30.0025 26.5999 31.134 23.6297 31.6526C20.6595 32.1712 14.4833 31.9826 9.10861 31.5583C3.78107 31.0869 2.08381 29.9082 1.37661 29.2953Z" fill="#893537"/>
<defs>
<linearGradient id="paint0_linear_0_15194" x1="13.5369" y1="0.466212" x2="27.99" y2="29.8691" gradientUnits="userSpaceOnUse">
<stop stop-color="#66A8FF"/>
<stop offset="1" stop-color="#0046F9"/>
</linearGradient>
</defs>
</svg>
