<svg width="36" height="37" viewBox="0 0 36 37" fill="none" xmlns="http://www.w3.org/2000/svg">
<g clip-path="url(#clip0_0_12094)">
<path d="M36 18.4784C36 23.098 34.3617 27.2859 31.6313 30.5239C29.699 32.8553 27.1785 34.6686 24.3641 35.748C22.3897 36.5251 20.2474 36.9568 17.979 36.9568C15.7106 36.9568 13.5683 36.5251 11.5939 35.748C8.77946 34.6254 6.25904 32.8121 4.32672 30.5239C1.63827 27.3291 0 23.098 0 18.4784C0 18.3057 0 18.133 0 17.9603C0.084014 14.6359 1.00817 11.5706 2.60443 8.89382C4.99883 4.87865 8.77946 1.85648 13.3162 0.604434C14.8285 0.215869 16.3827 0 17.979 0C19.5753 0 21.1715 0.215869 22.6838 0.647608C27.2205 1.89965 31.0432 4.92182 33.3956 8.93699C34.9498 11.5706 35.874 14.6791 36 18.0035C36 18.133 36 18.3057 36 18.4784Z" fill="#FFFBF7"/>
<path d="M18.063 18.3489V18.3921V18.4352L18.021 18.4784V18.5216V18.6079L17.979 18.6511V18.6079V18.5216V18.4784H17.937V18.4352V18.3489L17.979 18.4352L18.063 18.3489Z" fill="url(#paint0_linear_0_12094)"/>
<path d="M18.105 18.3489L18.063 18.3921V18.4784L18.021 18.5216L17.979 18.6079V18.6511V18.5216L17.895 18.5647V18.5216L17.937 18.4784L17.979 18.4352L18.063 18.3921L18.105 18.3489Z" fill="url(#paint1_linear_0_12094)"/>
<path d="M18.105 18.5216H18.021V18.6511L17.979 18.6079V18.5216H17.937V18.4784L17.895 18.3921V18.3489L17.937 18.3921L17.979 18.4352H18.021L18.063 18.4784L18.105 18.5216Z" fill="url(#paint2_linear_0_12094)"/>
<path d="M18.063 18.5217L18.105 18.5648H18.021H17.979H17.895H17.853L17.937 18.5217L17.979 18.4785L18.063 18.4353V18.5217Z" fill="url(#paint3_linear_0_12094)"/>
<path d="M36 17.9604C35.916 14.636 34.9918 11.5706 33.3956 8.89384C31.4212 5.56946 28.4387 2.89268 24.8682 1.38159C26.3384 2.67681 27.5566 4.18789 28.5648 5.87167C30.119 8.50528 31.0432 11.6138 31.1692 14.9382C31.1692 15.1109 31.1692 15.2836 31.1692 15.4563C31.1692 20.0759 29.5309 24.2637 26.8005 27.5018C24.8682 29.8332 22.3477 31.6465 19.5333 32.7258C17.5589 33.5029 15.4166 33.9347 13.1482 33.9347C10.8798 33.9347 8.73746 33.5029 6.76313 32.7258C6.5951 32.6395 6.42708 32.5963 6.25905 32.5099C7.81331 33.8915 9.61961 35.014 11.5939 35.7912C13.5683 36.5683 15.7106 37 17.979 37C20.2474 37 22.3897 36.5683 24.3641 35.7912C27.1785 34.6686 29.699 32.8553 31.6313 30.5671C34.3617 27.3291 36 23.098 36 18.5216C36 18.3057 36 18.133 36 17.9604Z" fill="#E32525" fill-opacity="0.2"/>
<path d="M22.6838 0.647608L18.063 18.9533V19.0397V19.0828L18.021 19.1692L17.979 19.0828V19.0397V18.9533L13.3582 0.647608C14.8285 0.215869 16.3827 0 17.979 0C19.5753 0 21.1715 0.215869 22.6838 0.647608Z" fill="url(#paint4_linear_0_12094)"/>
<path d="M18.105 18.9102L18.063 19.0397V19.0829L18.021 19.1692L11.6359 35.7911C8.82147 34.6686 6.30105 32.8553 4.36873 30.5671L17.895 19.126L17.937 19.0829L17.979 19.0397L18.105 18.9102Z" fill="url(#paint5_linear_0_12094)"/>
<path d="M31.6313 30.5671C29.6989 32.8985 27.1785 34.7118 24.3641 35.7912L18.021 19.2124L17.979 19.1261V19.0829L17.937 18.9965V18.9534H17.979L18.063 18.9965L18.105 19.0397L18.147 19.0829L31.6313 30.5671Z" fill="url(#paint6_linear_0_12094)"/>
<path d="M36 17.9603L18.147 19.0829H18.105H18.021H17.979H17.937H17.853L17.937 19.0397L17.979 18.9965L18.021 18.9533L33.3536 8.93701C34.9498 11.5706 35.916 14.6791 36 17.9603Z" fill="url(#paint7_linear_0_12094)"/>
<path d="M18.147 19.126H18.021H17.979H17.937H17.853H17.811L0 17.9603C0.084014 14.6359 1.00817 11.5706 2.60443 8.8938L17.937 18.9101L18.021 18.9533L18.063 18.9965L18.147 19.126Z" fill="url(#paint8_linear_0_12094)"/>
<path d="M6.80514 32.7691C8.52743 33.4598 10.4177 33.8484 12.3501 33.9347L11.6359 35.7912C11.4679 35.748 11.3419 35.6617 11.1739 35.6185C10.7958 35.4458 10.4177 35.2731 10.0817 35.1004C9.91366 35.0141 9.74563 34.9277 9.5776 34.8414C9.45158 34.755 9.32556 34.7119 9.19954 34.6255C9.07352 34.5392 8.90549 34.4528 8.77947 34.3665C8.65345 34.3233 8.56943 34.237 8.44341 34.1506C7.68729 33.6757 6.93116 33.1144 6.25905 32.51C6.46908 32.5964 6.63711 32.6827 6.80514 32.7691Z" fill="url(#paint9_linear_0_12094)"/>
<path d="M31.6313 30.567C29.6989 32.8984 27.1785 34.7117 24.3641 35.791L22.5998 31.1714C24.196 30.1784 25.5823 28.9264 26.8005 27.5017C26.9685 27.2858 27.1365 27.1131 27.3045 26.8972L31.6313 30.567Z" fill="url(#paint10_linear_0_12094)"/>
<path d="M30.9592 18.3057C31.0852 17.3991 31.1692 16.4493 31.1692 15.4563C31.1692 15.2836 31.1692 15.1109 31.1692 14.9382C31.1272 13.5134 30.9172 12.1319 30.5811 10.7935L33.3956 8.93701C34.9498 11.5706 35.874 14.6791 36 18.0035L30.9592 18.3057Z" fill="url(#paint11_linear_0_12094)"/>
<path opacity="0.27" d="M21.7596 5.95808C23.3979 7.64187 24.112 10.0164 23.986 12.5205C23.902 14.3338 23.3559 16.1903 22.3897 18.0036C21.7176 19.2556 20.8355 20.4645 19.7853 21.5439C18.7351 22.6232 17.5589 23.5298 16.3407 24.2206C14.5764 25.2136 12.7701 25.7749 11.0058 25.8612C8.56943 25.9908 6.25905 25.2568 4.62077 23.573C4.57877 23.5298 4.49475 23.4435 4.45274 23.3572C3.31856 22.1051 2.64644 20.5077 2.43641 18.7807C2.14236 16.1471 2.85648 13.1681 4.57877 10.4913C5.12486 9.62786 5.79697 8.76439 6.5951 7.94408C7.35123 7.16695 8.19137 6.47617 9.07351 5.87174C11.6779 4.10161 14.5764 3.36765 17.1389 3.66987C18.8191 3.88574 20.3734 4.53335 21.5916 5.74222C21.6336 5.82856 21.7176 5.91491 21.7596 5.95808Z" fill="white"/>
</g>
<defs>
<linearGradient id="paint0_linear_0_12094" x1="18" y1="18.3489" x2="18" y2="18.6511" gradientUnits="userSpaceOnUse">
<stop stop-color="#FF5E5E"/>
<stop offset="1" stop-color="#D10000"/>
</linearGradient>
<linearGradient id="paint1_linear_0_12094" x1="18" y1="18.3489" x2="18" y2="18.6511" gradientUnits="userSpaceOnUse">
<stop stop-color="#FF5E5E"/>
<stop offset="1" stop-color="#D10000"/>
</linearGradient>
<linearGradient id="paint2_linear_0_12094" x1="18" y1="18.3489" x2="18" y2="18.6511" gradientUnits="userSpaceOnUse">
<stop stop-color="#FF5E5E"/>
<stop offset="1" stop-color="#D10000"/>
</linearGradient>
<linearGradient id="paint3_linear_0_12094" x1="17.979" y1="18.4353" x2="17.979" y2="18.5648" gradientUnits="userSpaceOnUse">
<stop stop-color="#FF5E5E"/>
<stop offset="1" stop-color="#D10000"/>
</linearGradient>
<linearGradient id="paint4_linear_0_12094" x1="18.021" y1="0" x2="18.021" y2="19.2124" gradientUnits="userSpaceOnUse">
<stop stop-color="#FF5E5E"/>
<stop offset="1" stop-color="#D10000"/>
</linearGradient>
<linearGradient id="paint5_linear_0_12094" x1="11.2369" y1="18.9102" x2="11.2369" y2="35.7911" gradientUnits="userSpaceOnUse">
<stop stop-color="#FF5E5E"/>
<stop offset="1" stop-color="#D10000"/>
</linearGradient>
<linearGradient id="paint6_linear_0_12094" x1="24.7841" y1="18.9534" x2="24.7841" y2="35.7912" gradientUnits="userSpaceOnUse">
<stop stop-color="#FF5E5E"/>
<stop offset="1" stop-color="#D10000"/>
</linearGradient>
<linearGradient id="paint7_linear_0_12094" x1="26.9055" y1="8.93701" x2="26.9055" y2="19.0829" gradientUnits="userSpaceOnUse">
<stop stop-color="#FF5E5E"/>
<stop offset="1" stop-color="#D10000"/>
</linearGradient>
<linearGradient id="paint8_linear_0_12094" x1="9.07351" y1="8.8938" x2="9.07351" y2="19.126" gradientUnits="userSpaceOnUse">
<stop stop-color="#FF5E5E"/>
<stop offset="1" stop-color="#D10000"/>
</linearGradient>
<linearGradient id="paint9_linear_0_12094" x1="9.30456" y1="32.51" x2="9.30456" y2="35.7912" gradientUnits="userSpaceOnUse">
<stop stop-color="#FF5E5E"/>
<stop offset="1" stop-color="#D10000"/>
</linearGradient>
<linearGradient id="paint10_linear_0_12094" x1="27.1155" y1="26.8972" x2="27.1155" y2="35.791" gradientUnits="userSpaceOnUse">
<stop stop-color="#FF5E5E"/>
<stop offset="1" stop-color="#D10000"/>
</linearGradient>
<linearGradient id="paint11_linear_0_12094" x1="33.2906" y1="8.93701" x2="33.2906" y2="18.3057" gradientUnits="userSpaceOnUse">
<stop stop-color="#FF5E5E"/>
<stop offset="1" stop-color="#D10000"/>
</linearGradient>
<clipPath id="clip0_0_12094">
<rect width="36" height="37" fill="white"/>
</clipPath>
</defs>
</svg>
