<svg width="28" height="38" viewBox="0 0 28 38" fill="none" xmlns="http://www.w3.org/2000/svg">
<path d="M27.4459 25.2445L27.4008 25.8312V25.8763C27.3557 26.4629 27.3105 27.0496 27.2654 27.5911C27.2654 27.5911 27.2654 27.6362 27.2654 27.6813C27.2203 28.4936 27.13 29.3059 27.0398 30.0279C27.0398 30.073 27.0398 30.1182 27.0398 30.1633C26.6788 33.3221 26.2275 35.6236 25.8665 36.0748C24.5578 37.6994 19.7293 38.1958 17.834 36.3907C17.5181 36.1199 17.2925 35.5784 17.2023 34.8564C17.1571 34.721 17.1571 34.5857 17.1571 34.4503C16.7961 32.0135 17.2023 27.8167 17.5181 23.8907C17.6535 22.0406 17.834 20.1904 17.834 18.6561C17.834 18.3853 17.834 18.1146 17.834 17.889C17.834 16.6254 17.7438 15.5424 17.5633 14.6399C17.473 14.2337 17.3828 13.8727 17.2925 13.5117C17.2023 13.2409 17.112 12.9702 17.0218 12.7446C16.6607 11.9323 16.2095 11.3908 15.7131 11.0298C14.4496 10.1272 12.8701 10.5334 11.9225 11.1651C11.8774 11.2103 11.8322 11.2103 11.7871 11.2554C11.742 11.3005 11.6969 11.3456 11.6066 11.3908C11.5164 11.481 11.4261 11.5713 11.3358 11.7067L11.2907 11.7518C10.7492 12.6543 10.6138 14.4594 10.5236 16.129C10.5236 16.2193 10.5236 16.3095 10.5236 16.3998C10.5236 16.49 10.5236 16.5803 10.5236 16.7157C10.5236 16.851 10.5236 16.9864 10.5236 17.1669C10.5236 17.7084 10.5236 18.25 10.5236 18.611C10.5236 20.4611 7.95138 21.6344 5.33406 21.2734H5.28893C5.10843 21.2283 4.92792 21.2283 4.70229 21.1832C4.25103 21.0929 3.79976 20.9124 3.39363 20.7319C3.12287 20.5965 2.85211 20.4611 2.62648 20.2806C1.36295 19.4232 0.686054 17.1669 0.640928 14.5947C0.550675 12.0677 1.04706 9.17959 2.08497 6.87815C2.08497 6.87815 2.08497 6.83302 2.13009 6.83302C2.62648 5.70487 3.25825 4.75721 4.0254 4.08032C5.69507 2.54603 8.31239 1.41787 11.2005 0.831233C13.8629 0.334845 16.7961 0.334844 19.3683 1.10199C21.6698 1.77888 23.7004 2.99729 25.0993 4.93772C25.325 5.29873 25.5506 5.65974 25.7762 6.111C26.0019 6.56226 26.1824 7.05865 26.3629 7.55504C27.0849 9.7211 27.4459 12.6092 27.6264 15.6778C27.6715 18.7463 27.6264 22.1308 27.4459 25.2445Z" fill="url(#paint0_linear_0_15175)"/>
<path d="M27.4008 25.8764C24.7835 30.9305 18.195 30.3439 17.0669 34.4504C16.2095 30.9757 17.4279 23.8908 17.4279 23.8908C17.7438 23.7555 18.0597 23.6201 18.3755 23.4847C24.7835 20.4612 26.9495 16.7158 27.4459 15.5876C27.5362 15.362 27.5813 15.2717 27.5813 15.2717C28.6192 21.4991 27.4008 25.8764 27.4008 25.8764Z" fill="#FF224F"/>
<path d="M26.1824 7.59999C26.1824 7.64511 26.1372 7.73536 26.1372 7.82562C26.0018 8.27688 25.7762 8.72814 25.4603 9.1794C23.4296 12.2029 18.2853 15.5422 17.7889 18.7462C17.0217 17.618 16.9315 12.8346 16.9315 12.8346C16.9766 12.7444 17.2474 12.1126 17.8791 10.2624V10.2173C18.0596 9.76605 18.2401 9.22453 18.4658 8.63789C19.5939 5.3888 19.1878 1.10181 19.1878 1.10181C22.9784 1.64332 24.7834 4.08014 25.5506 5.79494C25.9567 6.69746 26.1372 7.41948 26.1372 7.50973C26.2275 7.50973 26.2275 7.50973 26.1824 7.59999Z" fill="#FF224F"/>
<path d="M15.6228 11.0299C15.6228 11.0299 13.8628 12.1129 12.2383 11.3909C12.1029 11.3458 11.9675 11.2555 11.8322 11.1201C10.4333 10.0822 9.21484 7.23929 6.64265 6.11113C3.93507 4.93785 2.17515 6.60752 1.99464 6.7429C2.22028 2.59129 6.9134 -0.206538 11.065 0.695987C12.6444 1.057 13.3213 1.95952 13.6823 3.22306C13.6823 3.22306 13.6823 3.26818 13.7275 3.35844C13.7726 3.49381 13.8177 3.71944 13.908 4.03533V4.08045C14.269 6.11113 14.3141 8.68333 15.6228 11.0299Z" fill="#FF224F"/>
<path d="M11.2907 11.6616C10.6138 12.88 2.31057 12.1129 0.55065 14.5497C-1.20927 16.9865 1.54343 20.8222 4.65714 21.1381C4.65714 21.1381 6.37193 17.167 10.4784 16.3999C10.5235 16.3999 11.6517 14.0984 11.2907 11.6616Z" fill="#FF224F"/>
<path d="M8.13193 2.8168C8.04168 4.26084 9.93698 4.17058 10.5236 2.45579C11.0651 0.786117 8.17706 1.73377 8.13193 2.8168Z" fill="white"/>
<path d="M21.399 4.57654C20.5416 4.89243 21.399 5.65957 21.9856 5.43394C22.6174 5.20831 21.9856 4.35091 21.399 4.57654Z" fill="white"/>
<path d="M1.99467 15.6326C1.49828 16.3095 2.67156 17.0315 3.48384 15.9936C4.29611 14.9106 2.49106 15.0008 1.99467 15.6326Z" fill="white"/>
<path opacity="0.47" d="M18.2853 23.8456C18.2853 23.8456 19.9549 23.5297 23.0687 21.8149C26.1824 20.1001 27.4459 16.5352 27.4459 16.5352C27.4459 16.5352 24.2871 21.4088 18.2853 23.8456Z" fill="#FFCCE0"/>
<path opacity="0.47" d="M2.53613 4.71207C2.53613 4.71207 4.52169 1.5081 8.13179 1.14709C11.6968 0.831209 13.0054 1.82399 13.0054 1.82399C13.0054 1.82399 11.787 0.289695 8.4928 0.650705C5.01808 1.01171 3.12277 3.4034 2.53613 4.71207Z" fill="#FFCCE0"/>
<path opacity="0.47" d="M1.40805 14.0082C1.40805 14.0082 3.30335 12.9251 6.6427 12.7446C9.98204 12.519 10.7492 12.2031 10.7492 12.2031C10.7492 12.2031 10.0723 12.8349 7.40984 12.9251C4.70227 12.9703 1.40805 14.0082 1.40805 14.0082Z" fill="#FFCCE0"/>
<path d="M4.38636 7.01332C2.94232 7.28408 2.31055 9.13426 2.58131 10.7588C2.80694 12.3833 5.51451 9.85627 6.0109 8.36711C6.46216 6.92307 4.38636 7.01332 4.38636 7.01332Z" fill="white"/>
<path d="M26.3628 14.0082C25.8664 13.6021 25.3701 16.5804 26.0018 16.8512C26.6336 17.1219 27.3556 14.8656 26.3628 14.0082Z" fill="white"/>
<path d="M19.6842 15.9937C19.3683 16.5352 22.3015 14.1887 23.7004 12.6092C25.0993 11.0749 25.5055 9.13452 25.5055 9.13452C25.5055 9.13452 20.1806 15.1363 19.6842 15.9937Z" fill="white"/>
<path d="M20.4062 31.6525C20.4062 31.6525 22.6625 30.6146 23.6553 30.1182C24.6932 29.6218 25.8664 28.2229 25.8664 28.2229C25.8664 28.2229 24.7834 29.1254 23.1137 29.9377C21.4892 30.7951 20.4062 31.6525 20.4062 31.6525Z" fill="white"/>
<path d="M12.0579 0.876465C12.0579 0.876465 13.0958 1.37285 13.547 2.68151C13.9983 3.99018 14.0886 5.34396 14.0886 5.34396C14.0886 5.34396 14.1788 3.31328 13.7727 2.18513C13.4117 1.01184 12.0579 0.876465 12.0579 0.876465Z" fill="white"/>
<path d="M5.69493 19.9647C5.69493 19.9647 6.41695 18.7915 7.90612 18.0694C9.39528 17.3474 10.1624 16.8059 10.1624 16.8059C10.1624 16.8059 7.09384 17.2572 5.69493 19.9647Z" fill="white"/>
<path d="M3.03253 6.33668C3.03253 6.33668 4.88271 6.11105 6.10111 6.65257C7.2744 7.19408 8.71844 8.23198 8.71844 8.23198C8.71844 8.23198 6.95851 6.33668 5.78523 6.0208C4.56682 5.65979 3.03253 6.33668 3.03253 6.33668Z" fill="white"/>
<defs>
<linearGradient id="paint0_linear_0_15175" x1="14.0817" y1="37.5158" x2="14.0817" y2="0.414762" gradientUnits="userSpaceOnUse">
<stop stop-color="#FFBBA4"/>
<stop offset="1" stop-color="#FFD1C9"/>
</linearGradient>
</defs>
</svg>
