<svg width="35" height="35" viewBox="0 0 35 35" fill="none" xmlns="http://www.w3.org/2000/svg">
<path d="M35 17.4812C35 27.1429 27.1805 34.9624 17.5188 34.9624C7.81955 35 0 27.1429 0 17.4812C0 7.81955 7.81955 0 17.4812 0C27.1429 0 35 7.81955 35 17.4812Z" fill="#92BC40"/>
<path d="M35 17.4812C35 27.1429 27.1805 34.9624 17.5188 34.9624C7.81955 35 0 27.1429 0 17.4812C0 7.81955 7.81955 0 17.4812 0C27.1429 0 35 7.81955 35 17.4812Z" fill="url(#paint0_linear_0_13340)"/>
<path d="M32.9699 17.4812C32.9699 26.015 26.0526 32.9323 17.5188 32.9323C8.98495 32.9323 2.06766 26.015 2.06766 17.4812C2.06766 8.94732 8.98495 2.03003 17.5188 2.03003C26.015 2.03003 32.9699 8.94732 32.9699 17.4812Z" fill="#ECF7D7"/>
<path d="M18.7988 20.5883C18.3542 19.8162 17.1981 19.9672 16.9666 20.8275L14.5489 29.8114C14.4041 30.3495 14.7268 30.9063 15.276 31.0008C17.9868 31.4675 20.6793 31.0194 23.0059 29.8691C23.4961 29.6267 23.6529 29.0177 23.3801 28.5438L18.7988 20.5883Z" fill="url(#paint1_linear_0_13340)"/>
<path d="M20.597 18.7771C19.7371 18.5481 19.0289 19.4722 19.4735 20.2431L24.1204 28.2996C24.3979 28.7807 25.0172 28.9467 25.4718 28.6276C27.7242 27.0466 29.312 24.8137 30.1382 22.3362C30.311 21.8179 29.9898 21.278 29.4618 21.1374L20.597 18.7771Z" fill="url(#paint2_linear_0_13340)"/>
<path d="M20.5861 16.1952C19.8151 16.6418 19.9692 17.7978 20.8303 18.0269L29.8135 20.4169C30.351 20.5599 30.906 20.2372 31.0005 19.6891C31.4678 16.9783 31.0203 14.2855 29.8704 11.9586C29.6277 11.4675 29.017 11.3111 28.543 11.5857L20.5861 16.1952Z" fill="url(#paint3_linear_0_13340)"/>
<path d="M18.7773 14.4029C18.5483 15.2629 19.4724 15.9711 20.2433 15.5265L28.2997 10.8795C28.7809 10.602 28.9469 9.98281 28.6278 9.52821C27.0468 7.27579 24.8139 5.68799 22.3363 4.86177C21.8181 4.68893 21.2782 5.0102 21.1376 5.53815L18.7773 14.4029Z" fill="url(#paint4_linear_0_13340)"/>
<path d="M16.1961 14.3847C16.6433 15.1541 17.7973 14.9998 18.0268 14.1399L20.4161 5.1869C20.5596 4.64928 20.2368 4.09377 19.6885 3.99927C16.9784 3.53224 14.2865 3.97954 11.9601 5.12884C11.4684 5.37176 11.3122 5.9833 11.5878 6.45745L16.1961 14.3847Z" fill="url(#paint5_linear_0_13340)"/>
<path d="M14.3966 16.2228C15.2576 16.4513 15.9651 15.5249 15.5181 14.7544L10.8429 6.69658C10.5647 6.21704 9.9466 6.05216 9.49275 6.37058C7.23943 7.95151 5.65098 10.1847 4.82444 12.6628C4.65148 13.1813 4.97316 13.7215 5.5015 13.8617L14.3966 16.2228Z" fill="url(#paint6_linear_0_13340)"/>
<path d="M14.3824 18.798C15.1529 18.3528 15.0018 17.1986 14.1427 16.9667L5.18903 14.5498C4.65075 14.4045 4.09343 14.7272 3.99887 15.2767C3.53249 17.9867 3.98033 20.6785 5.13007 23.0045C5.37264 23.4953 5.98263 23.6519 6.45661 23.378L14.3824 18.798Z" fill="url(#paint7_linear_0_13340)"/>
<path d="M16.2227 20.5969C16.4517 19.7369 15.5276 19.0287 14.7567 19.4733L6.70025 24.1202C6.21913 24.3977 6.05313 25.017 6.37221 25.4716C7.95321 27.724 10.1861 29.3118 12.6636 30.138C13.1819 30.3109 13.7218 29.9896 13.8624 29.4616L16.2227 20.5969Z" fill="url(#paint8_linear_0_13340)"/>
<path d="M11.8873 25.0744C12.0633 25.2806 12.0281 25.8402 11.8169 26.3703C11.6056 26.871 11.2888 27.1361 11.1127 26.9299C10.9367 26.7237 10.9719 26.1641 11.1831 25.634C11.3944 25.1038 11.7112 24.8682 11.8873 25.0744Z" fill="#6D4441"/>
<path d="M18.3564 27.005C18.6215 26.9519 18.8867 27.35 18.975 27.9074C19.0634 28.4647 18.9088 28.9424 18.6436 28.9955C18.3785 29.0486 18.1133 28.6505 18.025 28.0931C17.9366 27.5623 18.0912 27.0581 18.3564 27.005Z" fill="#6D4441"/>
<path d="M25.0741 23.113C25.2803 22.9369 25.8399 22.9721 26.3701 23.1834C26.8708 23.3946 27.1358 23.7115 26.9297 23.8875C26.7235 24.0636 26.1639 24.0284 25.6337 23.8171C25.1036 23.5883 24.868 23.289 25.0741 23.113Z" fill="#6D4441"/>
<path d="M27.0047 16.6491C26.9517 16.3818 27.3498 16.1145 27.9071 16.0254C28.4645 15.9363 28.9422 16.0922 28.9953 16.3595C29.0483 16.6268 28.6502 16.8941 28.0929 16.9832C27.5621 17.05 27.0578 16.9164 27.0047 16.6491Z" fill="#6D4441"/>
<path d="M24.1127 8.96501C23.9367 8.86173 23.9719 8.58139 24.1831 8.31581C24.3944 8.06499 24.7112 7.9322 24.8873 8.03548C25.0633 8.13876 25.0281 8.4191 24.8169 8.68467C24.588 8.9355 24.2888 9.06829 24.1127 8.96501Z" fill="#6D4441"/>
<path d="M16.8766 8.04279C16.556 8.11139 16.2146 7.72243 16.0811 7.16213C15.9476 6.60183 16.1138 6.10874 16.4344 6.04014C16.7549 5.97154 17.0963 6.3605 17.2298 6.9208C17.3364 7.48233 17.1971 7.97419 16.8766 8.04279Z" fill="#6D4441"/>
<path d="M10.044 11.555C9.91482 11.9377 9.35753 11.9824 8.75788 11.6802C8.18681 11.372 7.80185 10.8117 7.93099 10.429C8.06013 10.0463 8.61741 10.0016 9.21706 10.3038C9.78813 10.612 10.1731 11.1723 10.044 11.555Z" fill="#6D4441"/>
<path d="M7.99526 18.3566C8.04834 18.6218 7.65023 18.8869 7.09289 18.9753C6.53555 19.0637 6.05783 18.909 6.00474 18.6439C5.95166 18.3787 6.34977 18.1136 6.90711 18.0252C7.46445 17.9368 7.94217 18.0915 7.99526 18.3566Z" fill="#6D4441"/>
<defs>
<linearGradient id="paint0_linear_0_13340" x1="13.342" y1="-2.62446" x2="22.8426" y2="35.3762" gradientUnits="userSpaceOnUse">
<stop stop-color="#AEE25B"/>
<stop offset="0.5" stop-color="#90BB22"/>
<stop offset="1" stop-color="#7DA300"/>
</linearGradient>
<linearGradient id="paint1_linear_0_13340" x1="19.0789" y1="18.4961" x2="19.0789" y2="31.1831" gradientUnits="userSpaceOnUse">
<stop stop-color="#F86076"/>
<stop offset="1" stop-color="#FF0025"/>
</linearGradient>
<linearGradient id="paint2_linear_0_13340" x1="24.3421" y1="18.1577" x2="24.3421" y2="29.1728" gradientUnits="userSpaceOnUse">
<stop stop-color="#F86076"/>
<stop offset="1" stop-color="#FF0025"/>
</linearGradient>
<linearGradient id="paint3_linear_0_13340" x1="24.8397" y1="11.0901" x2="24.8397" y2="20.6766" gradientUnits="userSpaceOnUse">
<stop stop-color="#F86076"/>
<stop offset="1" stop-color="#FF0025"/>
</linearGradient>
<linearGradient id="paint4_linear_0_13340" x1="23.6654" y1="4.58643" x2="23.6654" y2="16.7293" gradientUnits="userSpaceOnUse">
<stop stop-color="#F86076"/>
<stop offset="1" stop-color="#FF0025"/>
</linearGradient>
<linearGradient id="paint5_linear_0_13340" x1="15.8834" y1="3.81665" x2="15.8834" y2="16.4661" gradientUnits="userSpaceOnUse">
<stop stop-color="#F86076"/>
<stop offset="1" stop-color="#FF0025"/>
</linearGradient>
<linearGradient id="paint6_linear_0_13340" x1="10.6391" y1="5.8269" x2="10.6391" y2="16.8419" gradientUnits="userSpaceOnUse">
<stop stop-color="#F86076"/>
<stop offset="1" stop-color="#FF0025"/>
</linearGradient>
<linearGradient id="paint7_linear_0_13340" x1="10.1414" y1="14.2856" x2="10.1414" y2="23.8721" gradientUnits="userSpaceOnUse">
<stop stop-color="#F86076"/>
<stop offset="1" stop-color="#FF0025"/>
</linearGradient>
<linearGradient id="paint8_linear_0_13340" x1="11.3346" y1="18.2705" x2="11.3346" y2="30.4134" gradientUnits="userSpaceOnUse">
<stop stop-color="#F86076"/>
<stop offset="1" stop-color="#FF0025"/>
</linearGradient>
</defs>
</svg>
