<svg width="23" height="38" viewBox="0 0 23 38" fill="none" xmlns="http://www.w3.org/2000/svg">
<g clip-path="url(#clip0_0_13376)">
<path d="M3.26974 0C2.68207 0 2.22563 0.497234 2.31081 1.07871C2.78782 4.33508 4.71826 13.8567 11.0027 14.0717C16.0335 14.2323 18.4783 4.5313 19.1774 1.14678C19.3019 0.543713 18.8363 0 18.2205 0H3.26974Z" fill="url(#paint0_linear_0_13376)"/>
<path d="M18.5243 3.89087C13.2406 6.16049 9.01353 8.6895 5.7811 11.024C6.83785 12.5154 8.26758 13.6827 10.0703 14.0069C11.7487 13.0342 13.5514 12.1264 15.4784 11.2834C16.846 9.14343 17.9027 6.22534 18.5243 3.89087Z" fill="#F86076"/>
<path d="M2.17569 0C2.17569 0.194539 2.42434 2.72355 3.29461 5.57679C6.34055 3.6314 9.94596 1.68601 14.1108 0H2.17569Z" fill="#FFB3C5"/>
<path d="M22 37.9999C22.5523 37.9999 23 37.5522 23 36.9999V23.9282C23 17.3139 17.8405 11.9316 11.5 11.9316C5.15946 11.9316 0 17.3139 0 23.9282V36.9999C0 37.5522 0.447715 37.9999 1 37.9999H22Z" fill="url(#paint1_linear_0_13376)"/>
<path d="M11.5 11.9316C6.15407 11.9316 1.67839 15.7576 0.372986 20.8804C3.91623 18.1569 8.76488 15.1091 15.0433 12.5153C13.9243 12.1262 12.7433 11.9316 11.5 11.9316Z" fill="#FA9000"/>
<path d="M18.027 14.0715C11.4378 16.5357 6.4027 19.5835 2.98378 22.0476C1.86486 22.8906 0.87027 23.6688 0 24.3821V31.0613C4.47568 27.1057 11.5622 22.0476 21.6946 18.3514C20.8243 16.6005 19.5811 15.1091 18.027 14.0715Z" fill="#FFC224"/>
<path d="M23 29.2456C15.727 31.8395 10.1324 35.1466 6.15405 37.9999H17.4054C19.1459 36.9623 21.0108 35.9248 23 34.8872V29.2456Z" fill="#53AB6E"/>
<path d="M23 23.9281C23 22.8257 22.8757 21.7233 22.5649 20.6858C14.2351 23.7336 8.08108 27.754 4.16486 30.8667C2.54865 32.1636 1.11892 33.3957 0 34.4981V37.9998H2.05135C6.77568 34.1738 13.6135 29.8291 23 26.5868V23.9281Z" fill="#B1D852"/>
</g>
<defs>
<linearGradient id="paint0_linear_0_13376" x1="10.7851" y1="0" x2="10.7851" y2="14.0736" gradientUnits="userSpaceOnUse">
<stop stop-color="#FFE3BA"/>
<stop offset="1" stop-color="#FFCAB4"/>
</linearGradient>
<linearGradient id="paint1_linear_0_13376" x1="11.5" y1="11.9316" x2="11.5" y2="37.9999" gradientUnits="userSpaceOnUse">
<stop stop-color="#FFE3BA"/>
<stop offset="1" stop-color="#FFCAB4"/>
</linearGradient>
<clipPath id="clip0_0_13376">
<rect width="23" height="38" fill="white"/>
</clipPath>
</defs>
</svg>
