<svg width="35" height="33" viewBox="0 0 35 33" fill="none" xmlns="http://www.w3.org/2000/svg">
<g clip-path="url(#clip0_0_12040)">
<path d="M35 20.1149C35 20.2756 35 20.4684 35 20.629C34.903 23.5209 34.0619 25.8023 32.671 27.6018C29.6303 31.4576 24.0019 33.0321 17.5 33.0321C11.1275 33.0321 5.53142 31.5219 2.45841 27.7624C1.00277 25.963 0.12939 23.6816 0 20.7897C0 20.5648 0 20.3077 0 20.0828C0 18.8617 0.12939 17.6086 0.38817 16.3875C0.808688 14.2668 1.58503 12.1461 2.6525 10.186C3.36414 8.86855 4.20518 7.61539 5.14325 6.49075C6.50185 4.81986 8.15157 3.34177 9.93069 2.24927C11.1275 1.51022 12.4214 0.899708 13.78 0.546251C14.9769 0.192795 16.2384 0 17.5 0C18.6969 0 19.8937 0.160662 21.0259 0.481986C22.3845 0.835443 23.6784 1.41383 24.9076 2.15287C26.719 3.24537 28.3364 4.69133 29.7597 6.36222L32.2828 10.0574C33.3503 12.0175 34.159 14.1061 34.6118 16.2269C34.8706 17.5122 35 18.8296 35 20.1149Z" fill="#C53BE7"/>
<path d="M34.5795 16.2269C34.1266 14.1061 33.3503 11.9854 32.2505 10.0574L29.7597 6.36222C28.3688 4.69133 26.719 3.24538 24.9076 2.15287C23.6784 1.41383 22.3845 0.835443 21.0259 0.481986C19.8937 0.160662 18.7292 0 17.5 0C16.4325 0 15.3651 0.12853 14.3623 0.385589C15.268 2.185 15.7856 4.20935 15.7856 6.36222C15.7856 13.6563 9.83364 19.5686 2.49076 19.5686C1.64972 19.5686 0.808688 19.4723 0 19.3437C0 19.5686 0 19.8257 0 20.1149C0 20.3398 0 20.5969 0 20.8218C0.12939 23.7137 1.00277 25.9951 2.45841 27.7624C5.49908 31.5219 11.0952 33.0321 17.5 33.0321C23.9695 33.0321 29.6303 31.4898 32.671 27.6018C34.0943 25.8023 34.903 23.4888 35 20.629C35 20.4684 35 20.2756 35 20.1149C35 18.8296 34.8706 17.5122 34.5795 16.2269Z" fill="url(#paint0_linear_0_12040)"/>
<path d="M24.9076 2.15282C24.7782 2.89187 23.2579 3.56665 20.7024 3.9201C16.9825 4.40209 12.4861 3.98437 10.6423 2.95613C10.2542 2.7312 9.99539 2.50628 9.93069 2.24922C11.1276 1.51017 12.4215 0.899655 13.78 0.546198C13.8124 0.674728 13.9094 0.803258 14.1359 0.931788C15.0093 1.44591 17.2089 1.6387 18.988 1.41377C20.3142 1.25311 21.0582 0.867523 21.0259 0.481934C22.3845 0.83539 23.6784 1.41377 24.9076 2.15282Z" fill="url(#paint1_linear_0_12040)"/>
<path d="M32.2828 10.0252C31.5712 11.3426 28.6275 12.4994 24.0342 13.142C16.5619 14.1381 7.56932 13.2705 3.91405 11.2141C3.3318 10.8927 2.91128 10.5393 2.68484 10.218C3.39649 8.90052 4.23753 7.64736 5.1756 6.52272C5.36969 6.84405 5.72551 7.16537 6.27542 7.4867C9.28374 9.18971 16.756 9.89663 22.902 9.09332C26.8484 8.51493 29.3068 7.4867 29.7597 6.36206L32.2828 10.0252Z" fill="url(#paint2_linear_0_12040)"/>
<path d="M35 20.1148C35 20.2755 35 20.4683 35 20.6289C33.6738 21.9785 30.342 23.1674 25.4251 23.8422C16.3678 25.0632 5.43438 24.0029 1.00277 21.4965C0.614604 21.2716 0.291129 21.0467 0.0323486 20.8217C0.0323486 20.5968 0.0323486 20.3398 0.0323486 20.1148C0.0323486 18.8938 0.161739 17.6406 0.420519 16.4196C0.711646 16.7088 1.09982 17.0301 1.64972 17.3193C5.91959 19.7292 16.4649 20.7575 25.1664 19.5686C30.2126 18.8938 33.5444 17.6406 34.6442 16.2268C34.8706 17.5121 35 18.8295 35 20.1148Z" fill="url(#paint3_linear_0_12040)"/>
<path d="M32.671 27.6018C29.6303 31.4577 24.0018 33.0322 17.5 33.0322C11.1275 33.0322 5.53142 31.522 2.4584 27.7625C6.92236 29.9153 16.7237 30.7829 24.9076 29.6904C28.4011 29.2084 31.0213 28.4694 32.671 27.6018Z" fill="url(#paint4_linear_0_12040)"/>
<path d="M24.9076 2.15282C24.8105 2.69907 23.9695 3.21319 22.4815 3.56665C21.8346 2.66694 21.0906 1.86363 20.2495 1.12458C20.7671 0.931788 21.0582 0.706861 21.0259 0.481934C22.3845 0.83539 23.6784 1.41377 24.9076 2.15282Z" fill="url(#paint5_linear_0_12040)"/>
<path d="M32.2828 10.0253C31.6682 11.1821 29.2745 12.2424 25.5222 12.8851C25.5222 12.853 25.5222 12.7887 25.5222 12.7566C25.5222 11.3427 25.3281 9.96104 24.9723 8.67575C27.6894 8.09736 29.4039 7.26192 29.7597 6.33008L32.2828 10.0253Z" fill="url(#paint6_linear_0_12040)"/>
<path d="M35 20.1148C35 20.2755 35 20.4683 35 20.6289C33.6737 21.9785 30.3419 23.1674 25.4251 23.8422C23.8077 24.0671 22.158 24.1956 20.476 24.2599C21.8669 22.9746 23.0314 21.4323 23.9048 19.7292C24.3253 19.6971 24.7458 19.6328 25.1663 19.5686C30.2126 18.8938 33.5443 17.6406 34.6442 16.2268C34.8706 17.5121 35 18.8295 35 20.1148Z" fill="url(#paint7_linear_0_12040)"/>
<path d="M32.671 27.6018C29.6303 31.4577 24.0018 33.0322 17.5 33.0322C11.1275 33.0322 5.53142 31.522 2.4584 27.7625C6.92236 29.9153 16.7237 30.7829 24.9076 29.6904C28.4011 29.2084 31.0213 28.4694 32.671 27.6018Z" fill="url(#paint8_linear_0_12040)"/>
<path d="M15.5915 4.04858C13.5213 3.88792 11.6775 3.50233 10.6423 2.95607C10.2542 2.73115 9.99539 2.50622 9.93069 2.24916C11.1276 1.51012 12.4215 0.899599 13.78 0.546143C13.8124 0.674672 13.9094 0.803202 14.1359 0.931732C14.2976 1.02813 14.4917 1.09239 14.7181 1.15666C15.1386 2.0885 15.4298 3.05247 15.5915 4.04858Z" fill="url(#paint9_linear_0_12040)"/>
<path d="M15.4621 9.35036C15.1063 10.8285 14.524 12.2101 13.7477 13.4312C9.60721 13.142 5.9196 12.3708 3.91405 11.214C3.3318 10.8927 2.91128 10.5393 2.68484 10.2179C3.39649 8.9005 4.23753 7.64734 5.1756 6.52271C5.36969 6.84403 5.72551 7.16535 6.27542 7.48668C8.08688 8.48278 11.5804 9.15756 15.4621 9.35036Z" fill="url(#paint10_linear_0_12040)"/>
<path d="M6.40481 18.9581C5.1756 19.3437 3.8817 19.5365 2.52311 19.5365C1.68207 19.5365 0.841036 19.4723 0.0323486 19.3116C0.0646961 18.3476 0.194086 17.3837 0.388171 16.4197C0.679299 16.7089 1.06747 17.0302 1.61738 17.3194C2.78189 17.962 4.43161 18.5404 6.40481 18.9581Z" fill="url(#paint11_linear_0_12040)"/>
<path d="M17.4353 2.31357C13.8447 0.257099 8.28095 3.11689 5.01385 8.74006C1.74675 14.3632 2.00553 20.5969 5.62845 22.6534C9.21903 24.7099 14.7828 21.8501 18.0499 16.2269C21.317 10.6037 21.0259 4.37005 17.4353 2.31357Z" fill="url(#paint12_linear_0_12040)"/>
</g>
<defs>
<linearGradient id="paint0_linear_0_12040" x1="17.5" y1="0" x2="17.5" y2="33.0321" gradientUnits="userSpaceOnUse">
<stop stop-color="#D941FF"/>
<stop offset="1" stop-color="#971EB5"/>
</linearGradient>
<linearGradient id="paint1_linear_0_12040" x1="17.4191" y1="0.481934" x2="17.4191" y2="4.11971" gradientUnits="userSpaceOnUse">
<stop stop-color="white"/>
<stop offset="0.855" stop-color="#ECECEC"/>
</linearGradient>
<linearGradient id="paint2_linear_0_12040" x1="17.4838" y1="6.36206" x2="17.4838" y2="13.5552" gradientUnits="userSpaceOnUse">
<stop stop-color="white"/>
<stop offset="0.855" stop-color="#ECECEC"/>
</linearGradient>
<linearGradient id="paint3_linear_0_12040" x1="17.5162" y1="16.2268" x2="17.5162" y2="24.3496" gradientUnits="userSpaceOnUse">
<stop stop-color="white"/>
<stop offset="0.855" stop-color="#ECECEC"/>
</linearGradient>
<linearGradient id="paint4_linear_0_12040" x1="17.5647" y1="27.6018" x2="17.5647" y2="33.0322" gradientUnits="userSpaceOnUse">
<stop stop-color="white"/>
<stop offset="0.855" stop-color="#ECECEC"/>
</linearGradient>
<linearGradient id="paint5_linear_0_12040" x1="22.5786" y1="0.481934" x2="22.5786" y2="3.56665" gradientUnits="userSpaceOnUse">
<stop stop-color="white"/>
<stop offset="0.855" stop-color="#ECECEC"/>
</linearGradient>
<linearGradient id="paint6_linear_0_12040" x1="28.6275" y1="6.33008" x2="28.6275" y2="12.8851" gradientUnits="userSpaceOnUse">
<stop stop-color="white"/>
<stop offset="0.855" stop-color="#ECECEC"/>
</linearGradient>
<linearGradient id="paint7_linear_0_12040" x1="27.738" y1="16.2268" x2="27.738" y2="24.2599" gradientUnits="userSpaceOnUse">
<stop stop-color="white"/>
<stop offset="0.855" stop-color="#ECECEC"/>
</linearGradient>
<linearGradient id="paint8_linear_0_12040" x1="17.5647" y1="27.6018" x2="17.5647" y2="33.0322" gradientUnits="userSpaceOnUse">
<stop stop-color="white"/>
<stop offset="0.855" stop-color="#ECECEC"/>
</linearGradient>
<linearGradient id="paint9_linear_0_12040" x1="12.7611" y1="0.546143" x2="12.7611" y2="4.04858" gradientUnits="userSpaceOnUse">
<stop stop-color="white"/>
<stop offset="0.855" stop-color="#ECECEC"/>
</linearGradient>
<linearGradient id="paint10_linear_0_12040" x1="9.07348" y1="6.52271" x2="9.07348" y2="13.4312" gradientUnits="userSpaceOnUse">
<stop stop-color="white"/>
<stop offset="0.855" stop-color="#ECECEC"/>
</linearGradient>
<linearGradient id="paint11_linear_0_12040" x1="3.21858" y1="16.4197" x2="3.21858" y2="19.5365" gradientUnits="userSpaceOnUse">
<stop stop-color="white"/>
<stop offset="0.855" stop-color="#ECECEC"/>
</linearGradient>
<linearGradient id="paint12_linear_0_12040" x1="16.1103" y1="15.1068" x2="3.3713" y2="7.70249" gradientUnits="userSpaceOnUse">
<stop stop-color="white" stop-opacity="0"/>
<stop offset="1" stop-color="white"/>
</linearGradient>
<clipPath id="clip0_0_12040">
<rect width="35" height="33" fill="white"/>
</clipPath>
</defs>
</svg>
