<svg width="38" height="37" viewBox="0 0 38 37" fill="none" xmlns="http://www.w3.org/2000/svg">
<path d="M36.96 11.5989C37.08 12.9189 36.48 14.3166 35.12 15.0931L28.04 19.0921L20.44 23.3628C19.28 24.0228 17.84 24.0228 16.64 23.3628L8.96 19.0532L1.88 15.0931C0.64 14.3943 0 13.1519 0 11.9095V24.9546C0 26.197 0.6 27.4782 1.88 28.177L16.68 36.4467C17.84 37.1067 19.28 37.1067 20.48 36.4467L35.12 28.177C36.4 27.4394 37 26.197 37 24.9546L36.96 11.5989Z" fill="url(#paint0_linear_0_16776)"/>
<path d="M36.96 14.7437C37.08 16.0637 36.48 17.4614 35.12 18.2379L28.04 22.2368L20.44 26.5076C19.28 27.1676 17.84 27.1676 16.64 26.5076L8.96 22.198L1.88 18.2379C0.64 17.539 0 16.2966 0 15.0543V21.4603C0 22.7027 0.64 23.9063 1.88 24.644L8.96 28.6041L16.68 32.9136C17.84 33.5737 19.28 33.5737 20.48 32.9136L28.08 28.6429L35.16 24.644C36.52 23.8675 37.12 22.4698 37 21.1497H37.04L36.96 14.7437Z" fill="#F59122"/>
<path d="M37 19.131C37.12 20.451 36.48 21.8487 35.12 22.6252L28.04 26.6242L20.48 30.8949C19.32 31.5549 17.88 31.5549 16.68 30.8949L8.96 26.5854L1.88 22.6252C0.64 21.9264 0 20.684 0 19.4416V17.1121C0 18.3545 0.64 19.5581 1.88 20.2957L8.96 24.2559L16.68 28.5654C17.84 29.2254 19.28 29.2254 20.48 28.5654L28.04 24.2947L35.12 20.2957C36.48 19.5192 37.08 18.1216 36.96 16.8015H37V19.131Z" fill="#FFDF8E"/>
<path d="M36.96 11.5989C36.84 10.473 36.24 9.38589 35.08 8.76469L20.28 0.495016C19.12 -0.165005 17.68 -0.165005 16.48 0.495016L1.87999 8.76469C0.719993 9.42471 0.119993 10.5118 0.0399933 11.6377C0.0399933 11.7542 0.0399933 11.8318 0.0399933 11.9483C0.0399933 13.1907 0.679993 14.3943 1.91999 15.132L8.99999 19.0921L16.72 23.4016C17.88 24.0616 19.32 24.0616 20.52 23.4016L28.12 19.1309L35.2 15.132C36.48 14.3555 37.08 12.9578 36.96 11.5989Z" fill="url(#paint1_linear_0_16776)"/>
<path fill-rule="evenodd" clip-rule="evenodd" d="M27.0683 9.25781C26.604 9.55445 26.3847 8.48019 26.709 8.19828C27.0721 7.9477 27.5327 8.96116 27.0683 9.25781Z" fill="#FFFFC4"/>
<path fill-rule="evenodd" clip-rule="evenodd" d="M19.5406 2.11015C19.1075 2.3681 18.892 1.32885 19.185 1.08564C19.5093 0.803729 19.9699 1.81719 19.5406 2.11015Z" fill="#FFFFC4"/>
<path fill-rule="evenodd" clip-rule="evenodd" d="M27.8681 9.45668C27.8404 10.2029 28.8447 10.6636 29.1984 10.6618C29.5522 10.66 29.3035 9.30564 28.8503 9.03476C28.4283 8.72518 27.8939 9.02919 27.8681 9.45668Z" fill="#FFFFC4"/>
<path fill-rule="evenodd" clip-rule="evenodd" d="M17.8701 6.61498C17.1957 6.26117 18.2203 5.23302 18.5851 6.00879C18.9186 6.82324 18.3197 6.85086 17.8701 6.61498Z" fill="#FFFFC4"/>
<path fill-rule="evenodd" clip-rule="evenodd" d="M9.34229 10.3442C8.3473 9.63474 9.9486 8.36892 10.4977 8.87751C11.0468 9.3861 10.3023 11.0573 9.34229 10.3442Z" fill="#FFFFC4"/>
<path fill-rule="evenodd" clip-rule="evenodd" d="M10.7592 12.0355C10.4459 12.4224 10.925 12.9384 11.3414 12.8592C11.7929 12.7763 11.3544 11.3003 10.7592 12.0355Z" fill="#FFFFC4"/>
<path fill-rule="evenodd" clip-rule="evenodd" d="M12.1889 16.2037C12.187 15.8499 12.6643 15.3395 12.8706 15.955C13.0807 16.6054 12.187 16.5225 12.1889 16.2037Z" fill="#FFFFC4"/>
<path fill-rule="evenodd" clip-rule="evenodd" d="M4.25299 8.40177C4.24748 8.01297 4.75975 7.4989 4.96978 8.14936C5.17981 8.79982 4.24745 8.68553 4.25299 8.40177Z" fill="#FFFFC4"/>
<path fill-rule="evenodd" clip-rule="evenodd" d="M15.3881 8.92921C15.3733 9.46173 16.0275 9.28671 15.9593 8.9753C15.8561 8.66758 15.3973 8.68046 15.3881 8.92921Z" fill="#FFFFC4"/>
<path fill-rule="evenodd" clip-rule="evenodd" d="M21.6107 4.48682C21.6015 4.73558 22.0456 4.58266 22.0658 4.43893C22.1211 4.29152 21.5757 3.81795 21.6107 4.48682Z" fill="#FFFFC4"/>
<path d="M1.72 14.9766L1.76 15.0154C1.72 15.0154 1.68 14.9766 1.64 14.9377C1.68 14.9766 1.68 14.9766 1.72 14.9766Z" fill="#D773EF"/>
<path d="M35.4 14.8989C35.44 14.8601 35.52 14.8213 35.56 14.8213C35.44 14.9378 35.28 15.0154 35.12 15.0931L35.4 14.8989Z" fill="#D773EF"/>
<path d="M36.56 10.2399C33.04 13.3459 28.36 15.2095 23.24 15.2095C16.16 15.2095 9.91999 11.6376 6.39999 6.20215L1.87999 8.76458C0.719993 9.4246 0.119993 10.5117 0.0399933 11.6376C0.0399933 11.7541 0.0399933 11.8317 0.0399933 11.9482C0.0399933 13.1906 0.679993 14.3942 1.91999 15.1318L8.99999 19.092L16.72 23.4015C17.88 24.0615 19.32 24.0615 20.52 23.4015L28.12 19.1308L35.2 15.1318C36.56 14.3553 37.16 12.9577 37.04 11.6376C36.92 11.1329 36.8 10.667 36.56 10.2399Z" fill="#CC6636" fill-opacity="0.2"/>
<path d="M28.04 19.092L35.12 15.093L28.04 20.1403L20.56 24.3333C19.4 24.9933 17.96 24.9933 16.76 24.3333L8.95999 20.1014L1.75999 15.0154C1.79999 15.0542 1.83999 15.0542 1.87999 15.093L8.95999 19.0532L16.68 23.3627C17.84 24.0227 19.28 24.0227 20.48 23.3627L28.04 19.092Z" fill="#ED7439"/>
<defs>
<linearGradient id="paint0_linear_0_16776" x1="18.5" y1="11.5989" x2="18.5" y2="36.9417" gradientUnits="userSpaceOnUse">
<stop stop-color="#FFCB55"/>
<stop offset="1" stop-color="#FF8A00"/>
</linearGradient>
<linearGradient id="paint1_linear_0_16776" x1="18.5075" y1="0" x2="18.5075" y2="23.8966" gradientUnits="userSpaceOnUse">
<stop stop-color="#FFEA2B"/>
<stop offset="1" stop-color="#FF9900"/>
</linearGradient>
</defs>
</svg>
