<svg width="37" height="36" viewBox="0 0 37 36" fill="none" xmlns="http://www.w3.org/2000/svg">
<g clip-path="url(#clip0_0_12031)">
<path d="M18.52 36.039C28.7484 36.039 37.0401 27.9714 37.0401 18.0195C37.0401 8.06761 28.7484 0 18.52 0C8.29171 0 0 8.06761 0 18.0195C0 27.9714 8.29171 36.039 18.52 36.039Z" fill="url(#paint0_linear_0_12031)"/>
<path opacity="0.2" d="M2.36511 16.6543C2.36511 10.5308 5.49187 5.14834 10.3023 1.87207C4.2091 4.79731 0 10.9208 0 18.0194C0 27.9652 8.29794 36.0389 18.52 36.0389C22.4485 36.0389 26.0964 34.8298 29.1029 32.8016C26.6176 34.0107 23.8516 34.6738 20.8852 34.6738C10.6631 34.6348 2.36511 26.6001 2.36511 16.6543Z" fill="black"/>
<path d="M36.559 14.0411C36.559 14.0801 36.559 14.1191 36.559 14.1581C36.559 14.2751 36.559 14.4311 36.559 14.6262C36.5189 15.3282 36.4388 16.4593 36.078 17.7854C35.7573 19.1115 35.156 20.7107 34.1137 22.3098C33.0715 23.9089 31.5883 25.4691 29.5038 26.6392C27.4193 27.8092 24.8136 28.5893 21.8873 28.7843C21.5265 28.7843 21.1658 28.8233 20.7649 28.8233H20.7248C20.7248 28.8233 20.6446 28.8233 20.7649 28.8233H20.6847H20.5244H20.2037C20.0834 28.8233 20.0433 28.8233 19.9632 28.8233H19.7226C19.0812 28.7843 18.3597 28.6673 17.7183 28.4723C16.3554 28.1213 15.0726 27.4582 13.9502 26.5221C12.8277 25.6251 11.8656 24.416 11.2243 23.0899C10.5829 21.7247 10.2221 20.2426 10.2622 18.6825C10.2622 18.4875 10.2622 18.3705 10.3023 18.1754C10.3023 17.9804 10.3424 17.8244 10.3824 17.6294C10.4626 17.2784 10.5428 16.8883 10.663 16.5373C10.9036 15.8353 11.2243 15.1332 11.6652 14.5091C12.507 13.261 13.7898 12.2079 15.2329 11.6229C15.9545 11.3109 16.7161 11.1159 17.5179 11.0379C17.7183 10.9988 17.9187 10.9988 18.1192 10.9988H18.2795H18.3196H18.3998C18.52 10.9988 18.6403 10.9988 18.7205 10.9988H18.961L19.2416 11.0379C19.442 11.0769 19.6024 11.0769 19.8028 11.1159C21.286 11.4279 22.689 12.286 23.611 13.4951C24.533 14.6652 25.0141 16.2253 24.9339 17.7074C24.8537 19.1505 24.052 20.5156 22.8895 21.3737C21.727 22.2318 20.1636 22.5828 18.8006 22.3098C17.4377 21.9978 16.3153 20.9837 15.8743 19.7356C15.6338 19.1115 15.5536 18.4485 15.6739 17.8244C15.7941 17.2394 16.0747 16.6543 16.4756 16.1863C17.3174 15.2892 18.6804 14.8992 19.8028 15.2892C20.3239 15.4842 20.805 15.8353 21.1257 16.2643C21.286 16.4983 21.4063 16.7323 21.4864 17.0053C21.5666 17.2784 21.6067 17.5124 21.6067 17.7854C21.6067 18.2925 21.3662 18.7605 21.0455 19.1115C20.6847 19.4626 20.2438 19.6576 19.7627 19.7356H19.6024H19.5623H19.5222H19.4019H19.2416L19.0812 19.6966C18.8808 19.6576 18.6804 19.5406 18.4799 19.4236C18.1192 19.1505 17.9187 18.7605 17.8786 18.3705C17.8386 18.1754 17.8386 17.9804 17.9187 17.8244C17.9588 17.6294 18.039 17.4734 18.1593 17.3564C18.3998 17.0834 18.7205 16.9273 19.0812 16.8883C19.1213 16.8883 19.1614 16.8883 19.2015 16.8883C19.2416 16.8883 19.3218 16.8883 19.3218 16.8883C19.4019 16.8883 19.4821 16.9273 19.5222 16.9273C19.6825 16.9663 19.8028 17.0444 19.883 17.1614C20.0834 17.3564 20.2037 17.6294 20.2037 17.8634C20.2037 18.3705 19.7627 18.6825 19.4019 18.6825C19.0412 18.6825 18.8407 18.4875 18.7606 18.3315C18.7205 18.2535 18.7205 18.1754 18.7205 18.1364C18.7205 18.0974 18.7205 18.0584 18.7205 18.0584V18.0194C18.7205 17.9414 18.6403 17.8634 18.5601 17.8634C18.4799 17.8634 18.3998 17.9414 18.3998 18.0194C18.3998 18.0194 18.3998 18.0584 18.3998 18.1364C18.3998 18.2144 18.4399 18.2925 18.4799 18.4485C18.52 18.5655 18.6403 18.7215 18.8006 18.8385C18.961 18.9555 19.2015 19.0725 19.4821 19.0725C19.7226 19.0725 20.0433 18.9945 20.2838 18.7605C20.5244 18.5655 20.7248 18.2144 20.7248 17.8634C20.7248 17.4734 20.6045 17.0834 20.2838 16.7713C20.1235 16.6153 19.9632 16.4983 19.7226 16.4203C19.6024 16.3813 19.5222 16.3423 19.3619 16.3423C19.2817 16.3423 19.2416 16.3423 19.2015 16.3423C19.1213 16.3423 19.0812 16.3423 19.0011 16.3423C18.52 16.3813 17.9989 16.5763 17.6381 16.9663C17.4778 17.1614 17.3174 17.3954 17.2373 17.6684C17.1571 17.9414 17.117 18.2145 17.1571 18.4875C17.1972 19.0335 17.5179 19.6186 17.9588 20.0086C18.1993 20.2036 18.4799 20.3596 18.8006 20.4766C18.8808 20.5156 18.961 20.5156 19.0412 20.5546C19.1213 20.5546 19.2416 20.5936 19.3218 20.5936H19.442H19.4821H19.5222H19.5623H19.8028C20.4442 20.5546 21.1257 20.2816 21.6468 19.8136C22.1679 19.3455 22.5287 18.6435 22.5688 17.9024C22.6089 17.5514 22.5688 17.1614 22.4886 16.8103C22.4084 16.4593 22.2481 16.1083 22.0477 15.7572C21.6468 15.0942 21.0054 14.5481 20.2438 14.2751C20.0433 14.1971 19.8429 14.1581 19.6425 14.0801L19.2416 13.9241C19.1213 13.9241 19.0412 13.9241 18.961 13.8851C18.7205 13.8851 18.52 13.8851 18.3196 13.8851C18.1192 13.9241 17.9187 13.9241 17.6782 14.0021C16.8364 14.1971 16.0747 14.5871 15.4334 15.2112C14.792 15.8353 14.351 16.6153 14.1506 17.5124C13.9902 18.4095 14.0303 19.3065 14.3109 20.1646C14.8721 21.9198 16.3554 23.4019 18.2795 23.9479C18.52 24.0259 18.7606 24.0649 19.0011 24.1039C19.1213 24.1039 19.2416 24.1429 19.4019 24.1429C19.5623 24.1429 19.6425 24.1429 19.7627 24.1819C20.2838 24.1819 20.7649 24.1429 21.2459 24.0649C22.208 23.9089 23.1701 23.5189 24.0119 22.9338C25.6955 21.8418 26.8981 19.9306 27.1387 17.8634C27.1387 17.7464 27.1788 17.5904 27.1788 17.4734V17.3174V17.2394V17.1224C27.1788 16.8883 27.1788 16.6153 27.1387 16.3813C27.0986 15.8743 27.0184 15.3672 26.8981 14.8602C26.6576 13.8461 26.1766 12.91 25.5753 12.0519C24.3727 10.3358 22.4886 9.00968 20.364 8.50264C20.0834 8.42463 19.8429 8.38563 19.5623 8.34663L19.1614 8.30762L18.8006 8.19061C18.6403 8.19061 18.5601 8.19061 18.4399 8.15161H18.3597H18.2394H18.039C17.7584 8.15161 17.5179 8.15161 17.2373 8.19061C16.1549 8.26862 15.1127 8.50264 14.1105 8.85367C12.1062 9.59473 10.3023 10.9208 9.01949 12.637C8.37811 13.4951 7.85698 14.4311 7.4962 15.4452C7.29577 15.9523 7.1755 16.4593 7.05524 16.9663C7.01516 17.2394 6.93498 17.4734 6.93498 17.7464C6.8949 17.9804 6.85481 18.3315 6.85481 18.5655C6.73455 20.5546 7.09533 22.6608 7.89707 24.533C8.6988 26.4051 9.9014 28.0823 11.4247 29.4084C12.948 30.7345 14.7118 31.7486 16.5959 32.3726C17.558 32.6847 18.4799 32.8797 19.4821 32.9967L19.883 33.0357C20.0032 33.0357 20.1636 33.0747 20.2438 33.0747H20.5645H20.7248H20.805H20.9252C21.3662 33.0747 21.8071 33.0747 22.2481 33.0747C25.5753 32.9967 28.8624 32.2166 31.6284 30.8515C35.0357 27.5752 37.1603 23.0509 37.1603 18.0194C37 16.6543 36.8396 15.3282 36.559 14.0411Z" fill="#9CCBFF"/>
<path opacity="0.18" d="M20.1636 4.44646C21.0856 6.86466 18.7606 9.94592 14.9523 11.311C11.1441 12.6761 7.29577 11.8181 6.37377 9.39987C5.45178 6.98167 7.77681 3.90041 11.585 2.5353C15.3933 1.17018 19.2416 2.02826 20.1636 4.44646Z" fill="url(#paint1_linear_0_12031)"/>
<path opacity="0.84" d="M19.9994 2.39119C20.0295 3.22153 18.9755 3.94115 17.5903 3.99651C16.2051 4.05186 15.0609 3.44295 15.0006 2.61261C14.9705 1.78227 16.0245 1.06265 17.4097 1.00729C18.825 0.924256 19.9693 1.56085 19.9994 2.39119Z" fill="url(#paint2_linear_0_12031)"/>
<path opacity="0.84" d="M22.9902 3.31486C22.913 3.83344 22.3986 4.12978 21.8585 3.94457C21.3185 3.75936 20.9327 3.20373 21.0098 2.68514C21.087 2.16656 21.6014 1.87022 22.1415 2.05543C22.6815 2.24064 23.0673 2.79627 22.9902 3.31486Z" fill="url(#paint3_linear_0_12031)"/>
<path opacity="0.84" d="M5.68364 10.8191C5.68364 11.2871 5.32286 11.6381 4.84182 11.6381C4.36078 11.6381 4 11.2871 4 10.8191C4 10.351 4.36078 10 4.84182 10C5.32286 10 5.68364 10.351 5.68364 10.8191Z" fill="url(#paint4_linear_0_12031)"/>
</g>
<defs>
<linearGradient id="paint0_linear_0_12031" x1="19" y1="-4.5" x2="19" y2="49.5" gradientUnits="userSpaceOnUse">
<stop offset="0.030856" stop-color="#56A9FF"/>
<stop offset="1" stop-color="#2C78DC"/>
</linearGradient>
<linearGradient id="paint1_linear_0_12031" x1="11.1832" y1="1.40668" x2="15.7543" y2="14.1297" gradientUnits="userSpaceOnUse">
<stop stop-color="white"/>
<stop offset="1" stop-color="white"/>
</linearGradient>
<linearGradient id="paint2_linear_0_12031" x1="17.419" y1="0.610444" x2="17.615" y2="4.92966" gradientUnits="userSpaceOnUse">
<stop stop-color="white"/>
<stop offset="1" stop-color="white"/>
</linearGradient>
<linearGradient id="paint3_linear_0_12031" x1="22.1624" y1="1.82776" x2="21.359" y2="4.40051" gradientUnits="userSpaceOnUse">
<stop stop-color="white"/>
<stop offset="1" stop-color="white"/>
</linearGradient>
<linearGradient id="paint4_linear_0_12031" x1="4.00228" y1="10.8206" x2="5.68428" y2="10.8206" gradientUnits="userSpaceOnUse">
<stop stop-color="white"/>
<stop offset="1" stop-color="white"/>
</linearGradient>
<clipPath id="clip0_0_12031">
<rect width="37" height="36" fill="white"/>
</clipPath>
</defs>
</svg>
