<svg width="37" height="37" viewBox="0 0 37 37" fill="none" xmlns="http://www.w3.org/2000/svg">
<path fill-rule="evenodd" clip-rule="evenodd" d="M36.6767 16.481C36.5918 17.0756 36.4218 17.7128 36.2095 18.3499C33.7883 25.6559 24.5708 35.0858 18.7091 36.6999C12.8897 35.1282 3.45991 26.1657 0.868834 18.9871C0.613974 18.265 0.40159 17.5429 0.316637 16.8633C-0.617851 11.1289 4.47935 7.4759 6.56071 6.2016C7.11291 5.86179 7.45273 5.73436 7.45273 5.73436C6.47576 5.52197 6.13595 4.88482 6.09347 4.84235C8.42969 1.52916 14.0791 0.467244 18.3692 0C22.6594 0.467244 28.9459 1.52916 31.2822 4.79987C31.2397 4.88482 30.8999 5.4795 29.9229 5.69188C29.9229 5.69188 30.2627 5.86179 30.8149 6.15912C32.8538 7.39095 37.6112 10.7891 36.6767 16.481Z" fill="url(#paint0_radial_0_13268)"/>
<path opacity="0.5" fill-rule="evenodd" clip-rule="evenodd" d="M31.2824 4.80017C31.24 4.88513 30.9002 5.52228 29.9232 5.73466C29.9232 5.73466 30.263 5.90457 30.8152 6.20191C30.8152 6.20191 26.8224 5.13999 25.9729 5.52228C25.1233 5.94704 22.0225 12.2761 19.8562 13.0831C17.6899 13.8902 14.759 5.77714 13.5272 5.09751C12.2954 4.46036 6.90081 6.07447 6.60347 6.15943C7.15567 5.81961 7.49549 5.69218 7.49549 5.69218C6.51852 5.4798 6.17871 4.84265 6.13623 4.80017C6.13623 4.80017 12.6776 4.12055 13.8245 4.29045C14.9714 4.46036 16.1183 9.04784 18.9217 11.0443C21.6827 13.0407 24.2313 5.56475 25.4631 5.09751C26.6525 4.67274 31.2824 4.80017 31.2824 4.80017Z" fill="#434E06"/>
<path opacity="0.5" d="M19.516 22.1728C20.7359 22.1728 21.7248 20.7465 21.7248 18.987C21.7248 17.2276 20.7359 15.8013 19.516 15.8013C18.2962 15.8013 17.3073 17.2276 17.3073 18.987C17.3073 20.7465 18.2962 22.1728 19.516 22.1728Z" fill="#A30D14"/>
<path fill-rule="evenodd" clip-rule="evenodd" d="M17.5197 20.3464C17.5197 20.3464 18.1993 21.7906 19.5161 21.6632C20.8328 21.5358 21.4275 20.5163 21.4275 20.5163C21.4275 20.5163 21.2151 22.5127 19.8984 22.7251C18.5816 22.9375 17.5197 20.3464 17.5197 20.3464Z" fill="#FF8B8B"/>
<path fill-rule="evenodd" clip-rule="evenodd" d="M17.3921 18.0954C17.477 19.1573 18.454 17.4582 19.4734 17.1609C20.4929 16.906 21.4699 18.0529 21.5973 17.9255C21.7247 17.7981 20.9177 15.5468 19.4734 15.6317C18.0717 15.7592 17.3921 18.0954 17.3921 18.0954Z" fill="#A5000D"/>
<path opacity="0.5" d="M9.02439 21.3659C9.96276 21.3659 10.7235 20.0537 10.7235 18.435C10.7235 16.8164 9.96276 15.5042 9.02439 15.5042C8.08602 15.5042 7.32532 16.8164 7.32532 18.435C7.32532 20.0537 8.08602 21.3659 9.02439 21.3659Z" fill="#A30D14"/>
<path fill-rule="evenodd" clip-rule="evenodd" d="M7.4953 19.6665C7.4953 19.6665 8.00502 21.0258 9.02446 20.8983C10.0439 20.7709 10.5111 19.8364 10.5111 19.8364C10.5111 19.8364 10.3412 21.7054 9.3218 21.8753C8.30236 22.0452 7.4953 19.6665 7.4953 19.6665Z" fill="#FF8B8B"/>
<path fill-rule="evenodd" clip-rule="evenodd" d="M7.41022 17.5854C7.49517 18.5624 8.21727 16.9907 9.02433 16.7359C9.83139 16.481 10.5535 17.5429 10.6384 17.458C10.7234 17.3306 10.0863 15.2917 9.02433 15.3342C7.91994 15.4191 7.41022 17.5854 7.41022 17.5854Z" fill="#A30D14"/>
<path opacity="0.5" d="M7.05208 11.8395C8.0615 10.5741 8.28515 9.07402 7.55163 8.48885C6.8181 7.90369 5.40517 8.45507 4.39576 9.72039C3.38635 10.9857 3.16269 12.4858 3.89622 13.071C4.62974 13.6562 6.04267 13.1048 7.05208 11.8395Z" fill="#A30D14"/>
<path fill-rule="evenodd" clip-rule="evenodd" d="M3.71441 10.7891C3.71441 10.7891 3.28965 12.1483 4.13918 12.7005C4.98872 13.2527 5.96568 12.7855 5.96568 12.7855C5.96568 12.7855 4.69138 14.1447 3.75689 13.635C2.86488 13.1678 3.71441 10.7891 3.71441 10.7891Z" fill="white" fill-opacity="0.6"/>
<path fill-rule="evenodd" clip-rule="evenodd" d="M4.94666 9.1322C4.39447 9.93926 5.96611 9.17468 6.73069 9.47202C7.49527 9.76935 7.41031 11.0437 7.53774 11.0437C7.66517 11.0012 8.47223 9.00477 7.58022 8.4101C6.73069 7.73047 4.94666 9.1322 4.94666 9.1322Z" fill="#A30D13"/>
<path opacity="0.5" fill-rule="evenodd" clip-rule="evenodd" d="M32.0893 8.79238C33.1937 9.98173 33.5335 11.4684 32.8539 12.1056C32.1743 12.7427 30.73 12.2755 29.6256 11.0861C28.5213 9.89677 28.1814 8.41009 28.8611 7.77294C29.5407 7.13579 30.9849 7.60303 32.0893 8.79238Z" fill="#A30D14"/>
<path fill-rule="evenodd" clip-rule="evenodd" d="M30.5604 11.8936C30.5604 11.8936 31.8347 12.5308 32.5143 11.7662C33.1939 11.0016 32.8966 9.98218 32.8966 9.98218C32.8966 9.98218 34.0435 11.4689 33.4063 12.2759C32.7692 13.083 30.5604 11.8936 30.5604 11.8936Z" fill="#A30D14"/>
<path fill-rule="evenodd" clip-rule="evenodd" d="M29.1159 10.4067C29.838 11.0863 29.2858 9.42971 29.7106 8.70761C30.1353 7.9855 31.3672 8.28284 31.3672 8.15541C31.3672 8.02798 29.4982 6.92359 28.7336 7.68817C28.0115 8.45275 29.1159 10.4067 29.1159 10.4067Z" fill="#A30D14"/>
<path opacity="0.5" fill-rule="evenodd" clip-rule="evenodd" d="M31.2825 17.7129C31.2825 19.327 30.518 20.6438 29.5835 20.6438C28.649 20.6438 27.8844 19.327 27.8844 17.7129C27.8844 16.0988 28.649 14.782 29.5835 14.782C30.518 14.782 31.2825 16.0988 31.2825 17.7129Z" fill="#A30D14"/>
<path fill-rule="evenodd" clip-rule="evenodd" d="M28.0544 18.9873C28.0544 18.9873 28.5641 20.3466 29.5835 20.2191C30.603 20.0917 31.0702 19.1572 31.0702 19.1572C31.0702 19.1572 30.9003 21.0262 29.8809 21.1961C28.8614 21.366 28.0544 18.9873 28.0544 18.9873Z" fill="#FF8B8B"/>
<path fill-rule="evenodd" clip-rule="evenodd" d="M27.9695 16.906C28.0545 17.8829 28.7766 16.3113 29.5837 16.0564C30.3907 15.8016 31.1128 16.8635 31.1978 16.7785C31.2827 16.6511 30.6456 14.6122 29.5837 14.6547C28.4793 14.7397 27.9695 16.906 27.9695 16.906Z" fill="#A5000D"/>
<path opacity="0.5" fill-rule="evenodd" clip-rule="evenodd" d="M16.84 27.3125C17.2223 28.7992 16.84 30.1584 15.9905 30.3708C15.1409 30.5832 14.164 29.5637 13.7817 28.0771C13.3994 26.5904 13.7817 25.2311 14.6312 25.0187C15.4808 24.8488 16.4577 25.8683 16.84 27.3125Z" fill="#A30D14"/>
<path fill-rule="evenodd" clip-rule="evenodd" d="M14.2065 29.2241C14.2065 29.2241 15.0135 30.3285 15.8631 29.9887C16.7551 29.6488 16.9675 28.6719 16.9675 28.6719C16.9675 28.6719 17.2648 30.3709 16.3728 30.7957C15.4808 31.2205 14.2065 29.2241 14.2065 29.2241Z" fill="#FF8B8B"/>
<path fill-rule="evenodd" clip-rule="evenodd" d="M13.6545 27.3547C13.9518 28.2467 14.2491 26.6326 14.8863 26.2078C15.5234 25.7831 16.4579 26.5901 16.5004 26.4627C16.5429 26.3353 15.481 24.5937 14.5465 24.9335C13.612 25.2733 13.6545 27.3547 13.6545 27.3547Z" fill="#A5000D"/>
<path opacity="0.5" d="M24.9869 27.9515C25.3425 26.4688 24.9465 25.1027 24.1025 24.9003C23.2584 24.6978 22.286 25.7358 21.9304 27.2185C21.5748 28.7013 21.9707 30.0674 22.8148 30.2698C23.6588 30.4722 24.6313 29.4343 24.9869 27.9515Z" fill="#A30D14"/>
<path fill-rule="evenodd" clip-rule="evenodd" d="M21.8099 28.3745C21.8099 28.3745 21.9798 29.7338 22.9143 29.8187C23.8488 29.9461 24.4859 29.1816 24.4859 29.1816C24.4859 29.1816 23.9337 30.8382 22.9567 30.7957C22.0223 30.7107 21.8099 28.3745 21.8099 28.3745Z" fill="#FF8B8B"/>
<path fill-rule="evenodd" clip-rule="evenodd" d="M22.1919 26.4629C22.0645 27.3974 23.0415 26.0806 23.8485 26.0382C24.6131 25.9957 25.0804 27.1001 25.1653 27.0576C25.2927 26.9726 25.1653 24.9762 24.1459 24.7638C23.1264 24.5939 22.1919 26.4629 22.1919 26.4629Z" fill="#A5000D"/>
<path opacity="0.8" fill-rule="evenodd" clip-rule="evenodd" d="M36.2092 18.3499C33.7881 25.6558 24.5706 35.0857 18.7088 36.6998C12.8895 35.1282 3.45967 26.1656 0.868591 18.987C1.08097 19.3268 10.5108 34.8308 18.4964 35.0432C26.4396 35.2556 35.9119 18.8596 36.2092 18.3499Z" fill="#CF1318"/>
<path fill-rule="evenodd" clip-rule="evenodd" d="M13.1125 8.50613C10.5639 8.29375 11.0311 11.2671 12.1355 13.4334C13.2399 15.5997 14.939 12.6264 15.9584 12.0317C16.9779 11.3946 14.0045 8.59109 13.1125 8.50613Z" fill="white" fill-opacity="0.6"/>
<path fill-rule="evenodd" clip-rule="evenodd" d="M25.9725 10.5767C25.4627 10.6616 25.2079 12.2757 26.4397 12.5731C27.6715 12.8279 27.6715 10.2793 25.9725 10.5767Z" fill="white" fill-opacity="0.6"/>
<path fill-rule="evenodd" clip-rule="evenodd" d="M1.46052 16.5198C2.05981 17.3965 1.81812 12.828 2.54963 11.7845C3.29434 10.7815 -0.416524 13.6476 1.46052 16.5198Z" fill="#FF8B8B"/>
<path fill-rule="evenodd" clip-rule="evenodd" d="M10.2136 2.5062C9.44905 3.01592 11.5304 3.61059 13.1445 3.14335C14.7586 2.6761 15.3958 1.35932 15.2259 1.23189C15.0135 1.06199 12.21 1.10446 10.2136 2.5062Z" fill="white" fill-opacity="0.8"/>
<path fill-rule="evenodd" clip-rule="evenodd" d="M23.1693 30.6684C22.5746 30.4135 24.0188 29.9462 24.5285 29.1817C24.9958 28.4596 24.4861 30.6259 23.1693 30.6684Z" fill="white" fill-opacity="0.6"/>
<path fill-rule="evenodd" clip-rule="evenodd" d="M16.1606 29.8612C15.9482 30.1586 16.4579 30.7108 16.7553 30.1586C17.0526 29.6064 17.0101 28.7568 17.0101 28.7568C17.0101 28.7568 16.5853 29.4365 16.1606 29.8612Z" fill="white" fill-opacity="0.6"/>
<path fill-rule="evenodd" clip-rule="evenodd" d="M33.2788 19.3267C33.2788 18.0949 29.6682 24.7637 27.9692 27.0999C26.2701 29.3937 33.3212 24.5089 33.2788 19.3267Z" fill="#CF0420"/>
<defs>
<radialGradient id="paint0_radial_0_13268" cx="0" cy="0" r="1" gradientUnits="userSpaceOnUse" gradientTransform="translate(18.1611 -0.129721) scale(37.8382 29.9262)">
<stop offset="0.00400999" stop-color="#528E00"/>
<stop offset="0.0891958" stop-color="#5A9300"/>
<stop offset="0.255" stop-color="#959509"/>
<stop offset="0.43" stop-color="#B26216"/>
<stop offset="0.52" stop-color="#F74A4E"/>
<stop offset="0.67" stop-color="#FF4F66"/>
<stop offset="0.8423" stop-color="#FF2735"/>
<stop offset="1" stop-color="#FF1D1B"/>
</radialGradient>
</defs>
</svg>
