<svg width="36" height="37" viewBox="0 0 36 37" fill="none" xmlns="http://www.w3.org/2000/svg">
<path d="M34.676 19.3234C34.676 21.6373 34.2038 23.8567 33.3538 25.8873C30.8038 31.9789 24.8066 36.2289 17.7705 36.2289C8.42057 36.2289 0.865051 28.6734 0.865051 19.3234C0.865051 9.97348 8.42057 2.41797 17.7705 2.41797C27.1205 2.41797 34.676 9.97348 34.676 19.3234Z" fill="url(#paint0_radial_0_15075)"/>
<path d="M6.10656 11.4372C6.72045 12.5233 9.78987 11.5789 11.6787 9.97334C13.5676 8.3678 13.426 4.21226 9.4121 4.63726C5.39823 5.06226 4.78434 9.17057 6.10656 11.4372Z" fill="url(#paint1_linear_0_15075)"/>
<path d="M24.3814 14.3651C21.0286 16.8207 22.1147 19.9373 24.9481 21.6845C27.7814 23.3845 30.4258 18.6623 30.0008 16.3012C29.623 13.8929 26.1286 13.0901 24.3814 14.3651Z" fill="url(#paint2_linear_0_15075)"/>
<path d="M17.7233 28.6261C15.4094 31.1761 12.2927 28.9095 11.4428 26.8789C10.4511 24.4706 10.9233 22.8178 12.3872 22.0623C13.0955 21.6845 14.04 21.5428 15.1733 21.5901C17.3455 21.6845 18.6677 23.3373 18.8566 25.2262C18.951 26.3595 18.6205 27.6345 17.7233 28.6261Z" fill="url(#paint3_linear_0_15075)"/>
<path d="M25.6564 4.3068C25.6564 4.3068 29.1036 3.92902 30.4258 4.87346C32.7869 6.57345 31.748 9.97344 31.748 9.97344C31.748 9.97344 29.2925 6.05401 25.6564 4.3068Z" fill="url(#paint4_linear_0_15075)"/>
<path d="M33.8732 26.5011C31.9371 28.5789 29.0093 28.4372 28.2065 27.115C27.876 26.5483 27.7815 25.9344 27.876 25.3205C28.301 22.8178 31.6537 20.0789 33.2121 20.2678C33.3537 20.2678 33.4954 20.315 33.5898 20.3622C36.0926 21.0706 35.2426 25.0372 33.8732 26.5011Z" fill="url(#paint5_linear_0_15075)"/>
<path d="M6.43718 26.0762C6.38996 26.2178 6.29552 26.4067 6.20107 26.5012C5.16219 27.8234 1.62054 27.5401 0.912213 24.0929C0.298327 21.1179 0.817766 18.8512 2.28165 18.6623C2.51776 18.6151 2.80109 18.6623 3.13164 18.7568C5.3983 19.4651 7.38162 23.904 6.43718 26.0762Z" fill="url(#paint6_linear_0_15075)"/>
<path d="M23.6733 36.5594C21.0288 37.3621 18.1011 36.4649 18.1955 35.001C18.1955 34.9066 18.2427 34.8122 18.2427 34.7177C18.8094 32.8761 23.0122 31.9788 25.4677 32.4511C25.6094 32.4511 25.7038 32.4983 25.7983 32.5455C28.3955 33.2066 26.3177 35.7566 23.6733 36.5594Z" fill="#FF3A64"/>
<path d="M10.4509 4.07072C10.4509 4.07072 10.8759 0.576292 14.8898 0.0568504C18.9037 -0.462591 21.0759 2.7485 21.0759 2.7485C21.0759 2.7485 15.9287 1.28462 10.4509 4.07072Z" fill="#FA0742"/>
<path d="M3.13154 27.7761C3.13154 27.7761 1.43155 34.5761 8.60929 33.5372C8.60929 33.5372 4.92597 30.8456 3.13154 27.7761Z" fill="#D1003D"/>
<path opacity="0.71" d="M25.6564 4.30688C25.6564 4.30688 27.923 5.06244 29.5758 6.76243C31.2286 8.46242 31.6536 9.83185 31.6536 9.83185C31.6536 9.83185 28.6786 5.86521 25.6564 4.30688Z" fill="#CA6D92"/>
<path d="M3.65112 27.7291C3.13167 27.7763 3.6039 28.2958 4.69 28.1069C5.77611 27.9652 4.17056 27.6347 3.65112 27.7291Z" fill="#9A2754"/>
<path d="M28.3011 27.54C27.9233 27.5873 28.7733 28.815 29.9066 28.9095C31.0399 29.0511 29.8122 28.2956 29.0566 28.0595C28.3011 27.9178 28.3011 27.54 28.3011 27.54Z" fill="#9A2754"/>
<path d="M26.3649 17.4818C25.9871 16.5373 27.2149 16.1595 27.5454 16.6318C27.876 17.1512 26.6482 18.2373 26.3649 17.4818Z" fill="white"/>
<path d="M14.5591 24.2343C13.898 24.6593 14.5119 25.1788 15.4091 25.226C16.2591 25.3204 15.4563 23.6677 14.5591 24.2343Z" fill="white"/>
<path d="M18.1953 5.62929C17.7704 6.24318 18.9981 6.62095 19.5176 5.91262C20.037 5.15707 18.7148 4.87374 18.1953 5.62929Z" fill="white"/>
<path d="M8.65655 6.05403C8.13711 7.04569 10.3093 6.85681 10.451 6.05403C10.6399 5.25126 9.03433 5.3457 8.65655 6.05403Z" fill="white"/>
<path d="M2.65946 21.0705C2.18724 21.3066 2.75391 21.9205 2.9428 22.0621C3.13168 22.251 2.89557 20.9288 2.65946 21.0705Z" fill="white"/>
<path d="M31.9843 21.5429C31.6065 22.204 32.9759 22.7706 32.9759 22.1567C32.9759 21.5429 32.3621 20.929 31.9843 21.5429Z" fill="white"/>
<path opacity="0.5" d="M5.02078 28.7205C6.67355 29.9011 8.51521 29.3344 8.18465 26.8316C7.90132 24.3761 7.00411 25.1316 6.86244 25.6511C6.72077 26.1705 6.43744 28.2011 5.02078 28.7205Z" fill="#C23E86"/>
<path d="M23.2481 33.1595C22.9176 34.5289 24.8065 33.7262 25.137 33.1595C25.4676 32.64 23.3426 32.7345 23.2481 33.1595Z" fill="white"/>
<path opacity="0.5" d="M31.9842 13.7038C31.1342 13.8927 32.1258 16.2538 32.9758 16.4427C33.8258 16.6788 33.637 13.326 31.9842 13.7038Z" fill="#FFD8FF"/>
<path d="M30.0481 4.92086C29.0092 4.44864 30.3786 7.89585 30.9453 8.03751C31.512 8.17918 32.5981 6.00697 30.0481 4.92086Z" fill="#FFD9C7"/>
<path d="M10.7817 11.0595C10.5928 11.2956 11.3011 10.965 11.49 10.5873C11.6317 10.2095 10.7817 11.0595 10.7817 11.0595Z" fill="#FFA67C"/>
<path d="M20.7925 12.193C20.1786 12.0513 20.7453 12.9013 21.6897 12.8541C22.6342 12.8068 22.9175 12.3818 22.8231 12.3818C22.7286 12.3346 21.7842 12.3818 20.7925 12.193Z" fill="#FFA67C"/>
<path d="M17.44 29.9956C16.9206 30.0901 17.7234 29.4762 18.0067 29.1456C18.2428 28.8151 18.0539 29.854 17.44 29.9956Z" fill="#FFA67C"/>
<path d="M15.3204 0.60955C14.6592 0.798438 17.5398 1.27066 18.2481 1.3651C18.9564 1.41232 17.3981 0.0428862 15.3204 0.60955Z" fill="white"/>
<defs>
<radialGradient id="paint0_radial_0_15075" cx="0" cy="0" r="1" gradientUnits="userSpaceOnUse" gradientTransform="translate(21.3044 14.8719) scale(20.6086 20.6086)">
<stop stop-color="#8E2E25"/>
<stop offset="0.4804" stop-color="#862724"/>
<stop offset="0.6847" stop-color="#691B1C"/>
<stop offset="0.8713" stop-color="#561416"/>
<stop offset="1" stop-color="#4F1114"/>
</radialGradient>
<linearGradient id="paint1_linear_0_15075" x1="9.16215" y1="11.8979" x2="9.16215" y2="4.60586" gradientUnits="userSpaceOnUse">
<stop stop-color="#FF7600"/>
<stop offset="0.6173" stop-color="#FF9200"/>
<stop offset="1" stop-color="#FFA000"/>
</linearGradient>
<linearGradient id="paint2_linear_0_15075" x1="26.1854" y1="22.0422" x2="26.1854" y2="13.7605" gradientUnits="userSpaceOnUse">
<stop stop-color="#FF7600"/>
<stop offset="0.6173" stop-color="#FF9200"/>
<stop offset="1" stop-color="#FFA000"/>
</linearGradient>
<linearGradient id="paint3_linear_0_15075" x1="14.8865" y1="29.7459" x2="14.8865" y2="21.5644" gradientUnits="userSpaceOnUse">
<stop stop-color="#D60042"/>
<stop offset="1" stop-color="#FF1820"/>
</linearGradient>
<linearGradient id="paint4_linear_0_15075" x1="25.6622" y1="7.11575" x2="31.9726" y2="7.11575" gradientUnits="userSpaceOnUse">
<stop stop-color="#FF7600"/>
<stop offset="0.6173" stop-color="#FF9200"/>
<stop offset="1" stop-color="#FFA000"/>
</linearGradient>
<linearGradient id="paint5_linear_0_15075" x1="31.5284" y1="28.1022" x2="31.5284" y2="20.285" gradientUnits="userSpaceOnUse">
<stop stop-color="#657CEC"/>
<stop offset="0.3891" stop-color="#6680E6"/>
<stop offset="0.9214" stop-color="#688BD4"/>
<stop offset="1" stop-color="#688DD1"/>
</linearGradient>
<linearGradient id="paint6_linear_0_15075" x1="3.64485" y1="27.251" x2="3.64485" y2="18.6525" gradientUnits="userSpaceOnUse">
<stop stop-color="#657CEC"/>
<stop offset="0.3891" stop-color="#6680E6"/>
<stop offset="0.9214" stop-color="#688BD4"/>
<stop offset="1" stop-color="#688DD1"/>
</linearGradient>
</defs>
</svg>
