<svg width="37" height="34" viewBox="0 0 37 34" fill="none" xmlns="http://www.w3.org/2000/svg">
<path fill-rule="evenodd" clip-rule="evenodd" d="M15.0165 33.1984H14.4904C10.282 33.1984 6.50396 31.1898 3.87369 27.9857L3.82586 27.9378C1.4347 25.0206 0 21.1469 0 16.8429C0 7.80426 6.50396 0.487305 14.5383 0.487305H15.16H15.2556C15.5849 0.510013 15.9142 0.543504 16.2415 0.587778C17.8029 0.680412 20.2073 0.886167 22.7896 1.29682C22.8288 1.29897 22.8681 1.30026 22.9074 1.30026H22.9552C30.32 2.11326 36.0109 8.90416 36.0109 16.8906C36.0109 20.1426 35.1023 23.1555 33.4763 25.6901C31.4199 28.9421 28.2158 31.3811 24.4377 32.1941L24.4376 32.1941L24.4376 32.1941C24.4376 32.1941 20.9944 33.5332 15.0165 33.2463V33.1984Z" fill="#FDC708"/>
<path d="M26.0157 16.9384C26.0157 18.9948 25.5375 20.9555 24.7245 22.6772C24.581 23.0119 24.3897 23.2989 24.2463 23.6336C22.1899 27.1247 18.5553 29.4681 14.4425 29.4681C14.1556 29.4681 13.9165 29.4681 13.6295 29.4202C13.3426 29.4202 13.0556 29.3724 12.7687 29.3246C8.99066 28.7507 5.83433 26.2161 4.16051 22.6772C4.01704 22.4381 3.9214 22.1989 3.82576 21.9598C3.20406 20.4295 2.86929 18.7078 2.86929 16.9384C2.86929 15.2167 3.20405 13.5908 3.77793 12.1082C3.87358 11.8691 3.96923 11.63 4.06487 11.3909C5.73869 7.75632 8.99066 5.12604 12.8643 4.55216C13.1035 4.50434 13.3904 4.45651 13.6295 4.45651C13.9165 4.40869 14.1556 4.40869 14.4425 4.40869C18.3162 4.40869 21.7595 6.46509 23.8637 9.66925C24.055 9.95619 24.2463 10.2431 24.3898 10.5301C25.4419 12.443 26.0157 14.595 26.0157 16.9384Z" fill="#FFE815"/>
<path opacity="0.62" d="M17.1686 18.134C17.2643 17.7514 17.2643 17.3688 17.2643 16.9862C17.2643 16.4124 17.1686 15.8863 17.073 15.4081C17.4556 14.2125 21.9031 11.4387 24.4378 10.5779C24.2943 10.291 23.7682 9.52581 23.5769 9.23887C21.7118 11.0083 17.6947 13.9734 16.4035 13.8777C15.8296 12.9691 14.9688 12.3474 14.0601 12.1083C13.3906 11.104 13.295 6.89553 13.6775 4.45654C13.4384 4.45654 12.5298 4.55219 12.2907 4.60001C12.6732 6.79988 13.1993 10.6736 12.6732 12.0604C11.5255 12.2517 10.569 13.0169 9.94732 14.1168C8.79956 14.2603 5.83452 12.1083 4.25636 10.8649C4.16071 11.104 3.9216 11.8691 3.82595 12.1083C5.64323 12.6343 8.70392 14.4516 9.37345 15.5037C9.2778 15.9819 9.18214 16.4602 9.18214 16.9862C9.18214 17.4166 9.22997 17.8471 9.32562 18.2775C8.79957 19.3774 5.45194 20.7164 3.63466 21.3381C3.73031 21.5773 4.11288 22.4859 4.20853 22.725C5.5954 21.4338 8.4648 19.76 9.80385 19.6165C10.4256 20.8121 11.4777 21.6729 12.6732 21.912C13.1515 23.538 12.8167 27.2682 12.4341 29.2768C12.7211 29.3246 13.3906 29.4203 13.6775 29.4203C13.2471 27.3161 13.2949 23.4902 13.7732 21.8642C14.9209 21.6729 15.973 20.9077 16.5947 19.8078C17.8381 19.6165 22.3814 21.9598 24.2943 23.6337C24.4856 23.3467 24.916 22.4859 25.0595 22.1511C22.477 21.4338 17.5512 19.2817 17.1686 18.134ZM13.0558 21.2903C11.1429 21.1947 9.61256 19.2817 9.61256 16.9384C9.61256 14.5951 11.1429 12.6821 13.0558 12.5865C15.0644 12.4909 16.7382 14.4516 16.7382 16.9384C16.7382 19.4252 15.0644 21.386 13.0558 21.2903Z" fill="#F3AA0D"/>
<path opacity="0.3" d="M1.09993 11.9651C1.86511 13.8302 4.01715 5.93934 10.9515 3.97859C17.8859 2.01783 21.9509 4.60029 24.4377 8.09138C26.9245 11.5825 27.2114 10.913 27.3549 10.2434C27.4984 9.62173 23.2421 -0.468976 13.0557 0.822252C2.86939 2.1613 1.09993 11.9651 1.09993 11.9651Z" fill="#FFEAA2"/>
<path d="M15.3991 0.535156C15.3991 0.535156 23.4334 0.535156 27.594 8.18687C31.7546 15.8864 27.3549 24.5902 26.7332 25.6424C26.7332 25.6424 30.7982 16.6038 26.8766 8.90422C22.9551 1.20468 15.3991 0.535156 15.3991 0.535156Z" fill="#FFDD66"/>
<path d="M26.9724 7.18235C26.016 6.60847 26.6377 9.28657 27.5941 10.4822C28.5506 11.6299 28.981 8.42576 26.9724 7.18235Z" fill="white"/>
<path opacity="0.8" d="M3.77786 12.1082C3.77786 12.1082 1.62581 16.9383 3.82568 21.9598L4.16044 22.6771C4.16044 22.6771 6.26466 28.7985 12.7686 29.3246L13.6294 29.4202C13.6294 29.4202 21.5203 30.8071 24.2462 23.5858L24.7244 22.6293C24.7244 22.6293 28.0721 16.8905 24.3897 10.53C28.9807 16.7949 25.8244 30.6636 15.112 31.094C4.44739 31.5244 0.191113 20.3816 3.77786 12.1082Z" fill="#F0A30E"/>
<path opacity="0.7" d="M4.16068 22.6772C4.16068 22.6772 5.97797 21.2904 7.22137 20.573C8.84736 19.6165 10.0908 19.3774 10.0908 19.3774C10.0908 19.3774 9.80383 19.1383 7.46049 19.9991C5.11715 20.8599 4.16068 22.6772 4.16068 22.6772Z" fill="white"/>
<path opacity="0.7" d="M3.77806 12.1084C3.77806 12.1084 8.08216 13.6387 9.61251 15.5038C9.61251 15.5038 8.03433 12.8257 3.77806 12.1084Z" fill="white"/>
<path opacity="0.7" d="M16.547 19.808C16.547 19.808 20.4685 20.2384 23.9596 23.3947C23.9596 23.3947 21.3771 21.0514 18.9381 19.808C16.4991 18.5646 16.547 19.808 16.547 19.808Z" fill="white"/>
<path opacity="0.7" d="M13.6297 4.45654C13.6297 4.45654 13.1514 8.2824 13.534 10.0997C13.534 10.0997 12.8645 5.69994 13.0558 5.03042C13.2471 4.31307 13.6297 4.45654 13.6297 4.45654Z" fill="white"/>
<path d="M4.06502 11.391C4.06502 11.391 4.97366 5.0783 12.8645 4.55225C12.8645 4.55225 6.6953 5.22177 4.06502 11.391Z" fill="#F1FF7E"/>
<path d="M9.61245 17.1775C9.61245 17.1775 9.5168 14.6429 11.6688 13.3995C13.8209 12.1561 15.3512 13.543 15.3512 13.543C15.3512 13.543 13.6774 11.917 11.621 12.5865C9.61244 13.3039 9.56463 16.5558 9.61245 17.1775Z" fill="#F1FF7E"/>
<path d="M13.4861 7.70857C13.4861 7.70857 13.5817 5.07829 15.4946 4.64788C17.4554 4.21747 21.2813 5.89128 21.2813 5.89128C21.2813 5.89128 17.8858 3.16536 13.5817 4.45659C13.6295 4.45659 13.4382 5.69999 13.4861 7.70857Z" fill="#F1FF7E"/>
<path d="M17.4078 14.9298C17.4078 14.9298 18.7468 13.256 21.4728 11.9169C24.1987 10.5779 24.5813 10.9127 24.7726 11.1518C24.9638 11.3909 20.325 12.5865 17.4078 14.9298Z" fill="#F1FF7E"/>
<path d="M5.64307 21.673C5.64307 21.673 6.88649 20.8122 7.9386 20.334C9.03853 19.8557 9.66023 19.6166 9.75588 19.7601C9.8037 19.9036 10.4254 20.7644 10.4254 20.7644C10.4254 20.7644 8.60811 20.2862 5.64307 21.673Z" fill="#F1FF7E"/>
<path d="M5.93028 10.0996C6.21722 11.8212 8.13015 9.52572 8.13015 7.99538C8.17797 6.46504 5.73898 8.71273 5.93028 10.0996Z" fill="white"/>
<path d="M10.8081 16.2211C11.0473 16.9862 11.9081 16.7471 12.0515 15.5994C12.2428 14.4994 10.4256 15.1689 10.8081 16.2211Z" fill="white"/>
<path d="M13.5818 22.7252C13.821 23.4903 14.6818 23.2512 14.8253 22.1035C15.0165 21.0035 13.2471 21.6252 13.5818 22.7252Z" fill="white"/>
<path d="M21.4248 12.1083C20.7075 12.7778 21.377 13.1604 22.19 12.8735C23.003 12.5387 22.0944 11.4388 21.4248 12.1083Z" fill="white"/>
</svg>
